<?xml version="1.0" standalone="no"?>
<!DOCTYPE svg PUBLIC "-//W3C//DTD SVG 20010904//EN"
 "http://www.w3.org/TR/2001/REC-SVG-20010904/DTD/svg10.dtd">
<svg version="1.0" xmlns="http://www.w3.org/2000/svg"
 width="1488.000000pt" height="1488.000000pt" viewBox="0 0 1488.000000 1488.000000"
 preserveAspectRatio="xMidYMid meet">
<metadata>
Created by potrace 1.14, written by Peter Selinger 2001-2017
</metadata>
<g transform="translate(0.000000,1488.000000) scale(0.100000,-0.100000)"
fill="#000000" stroke="none">
<path d="M5515 9630 c-4 -6 1 -7 12 -3 17 6 17 5 -1 -15 -11 -12 -14 -22 -8
-22 11 0 11 -38 -1 -57 -3 -5 -3 -13 0 -17 11 -10 12 -37 2 -30 -5 3 -9 0 -9
-5 0 -6 5 -11 10 -11 6 0 10 -5 10 -11 0 -5 -5 -7 -11 -4 -6 4 -5 -3 3 -14 8
-13 20 -20 31 -17 9 2 17 0 17 -5 0 -5 9 -9 20 -9 11 0 20 -6 20 -12 0 -9 4
-8 10 2 8 13 10 13 10 -2 0 -10 7 -15 18 -13 9 1 28 -3 42 -10 14 -7 33 -11
43 -10 9 2 17 -1 17 -6 0 -5 7 -9 16 -9 8 0 13 -4 10 -8 -3 -4 8 -7 25 -6 16
1 32 -3 36 -9 4 -6 1 -7 -8 -2 -12 7 -12 5 -1 -6 11 -12 14 -12 22 1 8 12 10
12 10 1 0 -8 6 -11 16 -7 8 3 13 2 10 -3 -7 -11 11 -17 51 -17 20 1 28 -3 23
-9 -5 -6 5 -11 28 -13 20 -1 38 -6 42 -11 3 -5 16 -11 30 -12 14 -2 27 -6 30
-9 13 -13 51 -30 45 -21 -3 6 -1 11 4 11 6 0 11 -5 11 -11 0 -5 5 -7 10 -4 6
3 10 2 10 -3 0 -6 9 -8 20 -5 12 3 20 0 20 -6 0 -7 5 -9 10 -6 6 3 10 2 10 -4
0 -5 9 -8 20 -6 14 3 20 -2 20 -13 0 -14 2 -15 10 -2 8 13 10 12 15 -1 4 -10
16 -15 31 -13 13 1 24 -2 24 -7 0 -6 5 -7 10 -4 6 3 10 1 10 -4 0 -6 5 -11 11
-11 5 0 7 5 4 11 -7 11 -4 10 61 -24 17 -9 34 -14 37 -11 3 3 16 -1 29 -9 12
-8 33 -14 45 -13 12 2 20 -1 17 -6 -3 -4 1 -9 8 -10 51 -6 79 -18 71 -31 -4
-7 1 -6 10 2 13 10 17 10 17 1 0 -10 3 -10 16 0 12 11 15 11 12 0 -2 -8 3 -15
10 -16 6 -1 14 -3 17 -4 3 -1 14 -3 25 -4 12 0 24 -7 29 -14 5 -8 11 -13 15
-13 22 3 36 0 32 -7 -3 -5 1 -9 9 -9 8 0 12 4 9 8 -2 5 8 2 22 -6 15 -8 31
-12 36 -9 4 3 11 -2 14 -10 3 -9 10 -16 16 -16 5 0 6 4 3 10 -3 6 1 7 9 4 9
-3 13 -10 10 -15 -3 -5 2 -6 10 -3 9 3 16 1 16 -6 0 -6 5 -8 10 -5 6 4 18 1
27 -7 14 -11 16 -11 8 2 -5 9 0 7 14 -4 23 -21 55 -31 45 -15 -3 5 0 9 5 9 6
0 11 -7 11 -16 0 -11 6 -14 20 -9 12 4 20 2 20 -5 0 -6 5 -8 12 -4 8 5 9 1 5
-12 -7 -18 -7 -18 8 0 8 11 15 14 15 7 0 -7 5 -9 10 -6 6 3 10 1 10 -6 0 -7
10 -9 24 -7 17 3 23 1 19 -8 -3 -8 6 -12 30 -10 23 1 33 -3 30 -10 -2 -7 0
-15 6 -19 6 -3 14 1 17 10 5 13 9 12 25 -6 13 -15 19 -17 19 -8 0 8 3 10 8 4
10 -14 55 -39 47 -26 -3 6 -1 11 4 11 6 0 11 -5 11 -10 0 -6 3 -9 8 -9 21 4
32 -2 26 -13 -5 -8 0 -7 11 2 17 14 18 13 12 -4 -6 -15 -5 -17 7 -7 11 9 15 9
18 -1 3 -7 18 -13 34 -13 19 0 28 -5 26 -15 -3 -11 0 -11 12 0 9 7 16 8 16 3
0 -5 10 -9 22 -10 11 -1 24 -6 27 -11 3 -5 20 -8 38 -7 18 1 30 -2 27 -7 -3
-5 -10 -5 -16 -2 -6 4 -8 2 -5 -4 4 -5 18 -9 32 -8 13 2 26 -3 29 -11 3 -8 11
-11 16 -8 6 4 17 1 25 -5 12 -10 15 -10 15 1 0 8 6 6 16 -7 8 -10 13 -12 9 -4
-5 12 -4 12 7 -1 7 -9 23 -14 36 -13 14 3 25 -2 29 -12 5 -13 7 -13 14 -2 6
10 9 8 9 -7 0 -11 4 -15 8 -10 9 13 27 13 39 1 5 -5 2 -6 -6 -1 -9 5 -12 4 -7
-3 4 -6 13 -9 21 -5 8 3 15 1 15 -5 0 -5 12 -8 26 -6 20 2 24 -1 20 -13 -5
-13 -4 -14 9 -3 11 9 15 9 15 1 0 -7 4 -10 9 -7 4 3 17 -1 27 -9 10 -8 31 -15
47 -15 15 0 27 -6 27 -12 0 -10 2 -10 9 0 7 11 9 11 14 -2 4 -10 13 -13 23 -9
10 4 15 2 11 -4 -3 -5 -1 -10 6 -10 44 -3 80 -11 85 -20 4 -6 15 -9 25 -7 9 1
17 -4 17 -12 0 -8 5 -14 11 -14 5 0 8 4 4 9 -3 5 -1 13 5 16 6 4 9 1 8 -7 -2
-7 3 -12 10 -10 6 1 12 -3 12 -10 0 -6 3 -8 7 -5 3 4 13 1 21 -6 13 -10 14 -9
7 3 -7 12 -6 13 7 3 8 -7 18 -10 21 -6 4 3 7 1 7 -6 0 -6 6 -11 13 -10 26 3
38 -1 31 -13 -5 -8 0 -9 14 -6 13 4 22 1 22 -5 0 -7 5 -5 10 3 9 13 10 13 10
0 0 -14 16 -19 67 -23 10 0 10 -3 0 -15 -10 -13 -9 -14 10 -4 15 9 24 9 28 1
4 -6 13 -8 20 -5 8 3 26 -5 41 -17 17 -13 25 -16 20 -7 -5 11 -4 11 6 -1 8
-10 24 -14 41 -12 19 3 27 -1 27 -11 0 -10 6 -13 15 -10 9 4 15 0 15 -7 0 -11
3 -11 10 1 9 13 10 13 10 0 0 -13 1 -13 10 0 9 13 10 13 11 0 1 -8 1 -19 0
-23 -1 -4 8 -3 18 3 16 8 23 6 37 -12 13 -18 15 -19 10 -4 -6 18 -5 18 19 2
14 -9 30 -14 35 -11 6 3 10 -1 10 -11 0 -13 3 -14 15 -4 12 10 16 9 21 -4 3
-9 10 -16 16 -16 5 0 6 6 2 13 -6 9 -5 9 8 0 8 -7 19 -9 23 -5 5 4 5 2 2 -4
-4 -7 0 -15 9 -18 10 -4 13 -2 8 7 -6 9 -5 9 8 0 8 -7 18 -10 21 -6 4 3 7 1 7
-5 0 -7 8 -12 18 -12 10 0 24 -6 30 -12 10 -10 15 -10 21 1 7 11 9 11 14 0 4
-12 7 -11 16 1 10 14 15 8 12 -15 -1 -5 6 -1 14 9 13 18 20 15 16 -6 0 -5 4
-8 9 -8 6 0 10 7 10 16 0 8 5 12 10 9 6 -4 8 -12 4 -18 -3 -7 2 -3 10 7 14 18
21 15 17 -6 0 -5 4 -8 9 -8 6 0 10 7 10 16 0 8 5 12 10 9 6 -4 7 -12 3 -18 -3
-7 4 -3 17 8 20 17 23 18 17 3 -4 -10 -4 -18 0 -18 3 0 12 8 20 18 14 16 14
16 8 -2 -6 -20 -6 -20 16 0 20 17 22 17 16 2 -4 -10 -4 -18 0 -18 3 0 12 8 20
18 14 16 14 16 8 -3 -5 -16 -4 -18 6 -7 14 13 33 17 25 4 -3 -5 1 -9 9 -9 8 0
12 4 10 8 -7 11 66 2 91 -12 12 -6 27 -22 33 -36 8 -17 11 -201 11 -608 l0
-584 -22 -12 c-13 -7 -43 -17 -68 -24 -33 -8 -46 -17 -48 -31 -6 -42 15 -46
248 -46 229 0 250 3 250 43 0 21 -7 26 -48 34 -45 8 -79 22 -89 37 -4 7 -8
301 -9 653 0 352 -4 653 -8 668 l-6 27 -168 -5 c-178 -6 -202 -9 -202 -29 0
-7 -7 -21 -16 -32 -8 -10 -13 -13 -9 -6 7 13 -40 36 -56 26 -5 -3 -9 -1 -9 5
0 5 -10 11 -22 13 -13 2 -22 8 -21 13 1 6 -13 10 -30 10 -18 -1 -35 3 -38 8
-3 4 -16 9 -27 10 -12 1 -22 5 -22 10 0 4 -4 5 -10 2 -5 -3 -10 0 -10 7 0 9
-3 9 -10 -2 -8 -13 -10 -12 -10 3 0 13 -6 16 -25 13 -14 -3 -31 2 -39 10 -8 8
-22 14 -31 14 -10 0 -14 5 -9 13 5 9 4 9 -6 0 -11 -10 -16 -9 -27 5 -8 9 -12
11 -8 5 3 -7 1 -13 -4 -13 -6 0 -11 4 -11 9 0 5 -7 12 -16 15 -9 4 -13 2 -8
-5 3 -6 -5 -3 -19 6 -15 9 -31 14 -37 10 -5 -3 -13 1 -16 9 -3 9 -10 13 -16
10 -11 -7 -68 15 -68 26 0 4 -11 6 -25 5 -14 -2 -28 2 -32 7 -4 7 -1 8 7 3 8
-5 11 -4 6 3 -4 6 -13 9 -21 5 -9 -3 -22 0 -30 7 -8 6 -19 9 -25 5 -5 -3 -10
-1 -10 4 0 6 -8 11 -18 11 -10 0 -22 4 -27 9 -6 5 -23 11 -40 13 -16 2 -36 8
-43 15 -7 7 -20 9 -29 6 -11 -4 -14 -3 -9 5 6 11 -19 18 -46 13 -5 0 -8 4 -8
10 0 5 -4 8 -9 4 -5 -3 -17 2 -25 11 -12 11 -16 12 -16 2 0 -10 -2 -10 -9 1
-5 8 -16 11 -25 8 -9 -4 -15 -2 -13 5 1 6 -9 12 -21 13 -13 1 -28 8 -33 16 -7
12 -9 12 -9 -1 0 -12 -2 -12 -9 -2 -4 8 -11 13 -15 13 -20 -3 -26 0 -20 12 5
8 2 8 -9 -2 -12 -9 -17 -10 -17 -2 0 7 -4 10 -9 6 -5 -3 -15 0 -23 7 -15 14
-31 19 -65 22 -11 0 -19 4 -16 9 2 4 -7 7 -21 7 -14 0 -26 5 -26 11 0 5 -4 8
-9 4 -5 -3 -12 -1 -16 5 -4 6 -11 8 -16 5 -5 -4 -9 -1 -9 6 0 9 -3 9 -14 0
-10 -9 -15 -8 -19 4 -4 8 -13 12 -22 9 -10 -4 -15 0 -16 12 0 11 -3 14 -5 7
-3 -7 -12 -9 -20 -6 -13 5 -13 7 -2 14 8 6 1 7 -18 3 -19 -4 -34 -1 -38 5 -4
6 -12 9 -17 6 -5 -4 -9 -2 -9 4 0 5 -9 8 -20 6 -11 -2 -18 0 -15 5 3 5 1 11
-5 15 -5 3 -10 1 -10 -4 0 -12 -39 6 -52 24 -5 6 -8 4 -8 -5 0 -12 -2 -12 -9
-2 -7 12 -25 18 -54 21 -5 1 -5 6 -1 12 4 8 1 8 -12 1 -23 -11 -47 -5 -37 11
4 7 -1 6 -11 -2 -15 -12 -17 -12 -14 0 2 9 -5 14 -19 13 -14 -1 -23 4 -23 13
0 8 -5 11 -11 7 -6 -3 -15 0 -20 7 -7 12 -9 12 -9 -1 0 -9 -5 -7 -16 8 -13 18
-19 21 -30 11 -10 -8 -14 -8 -14 0 0 6 -11 11 -25 11 -14 0 -25 6 -25 13 0 8
-4 7 -10 -3 -8 -12 -10 -12 -10 -1 0 9 -8 12 -25 9 -14 -3 -23 -1 -22 6 1 6
-8 12 -20 14 -13 2 -23 9 -23 15 0 7 -4 6 -10 -3 -6 -10 -10 -11 -10 -2 0 6
-9 12 -20 12 -11 0 -20 4 -20 8 0 7 -16 11 -57 14 -7 1 -13 8 -13 17 0 14 -2
14 -10 1 -5 -8 -10 -10 -10 -4 0 7 -9 14 -20 17 -11 3 -20 0 -20 -5 0 -6 -8
-2 -17 8 -10 10 -24 19 -30 20 -39 3 -44 5 -37 15 5 8 1 8 -14 0 -17 -9 -24
-7 -43 17 -12 15 -19 19 -16 10 4 -10 2 -18 -3 -18 -6 0 -10 3 -10 8 0 4 -9
13 -21 20 -12 8 -18 9 -15 4 8 -13 -12 -10 -40 6 -12 6 -25 8 -29 4 -5 -4 -6
0 -3 8 4 11 -2 15 -26 15 -17 -1 -40 5 -52 12 -11 7 -24 10 -29 6 -4 -5 -5 -2
-1 5 5 8 -1 12 -18 12 -14 0 -26 4 -26 9 0 6 -9 8 -20 6 -11 -2 -20 1 -20 6 0
6 -4 7 -10 4 -5 -3 -10 -1 -10 6 0 8 -5 7 -17 -2 -11 -10 -14 -10 -9 -1 5 8 1
12 -13 12 -10 0 -21 4 -23 10 -1 5 -18 10 -35 12 -18 1 -35 8 -37 15 -3 7 -10
13 -16 13 -6 0 -8 -4 -5 -10 3 -6 -1 -7 -9 -4 -9 3 -13 11 -9 17 4 6 0 8 -10
4 -10 -3 -17 -2 -17 2 0 5 -9 7 -20 4 -12 -3 -20 0 -20 6 0 7 5 9 12 5 6 -4 8
-3 5 3 -3 5 -22 8 -42 7 -24 -2 -34 0 -29 8 5 7 2 9 -9 5 -9 -3 -18 0 -21 9
-4 12 -10 12 -26 4 -16 -8 -18 -8 -14 4 4 11 0 14 -15 11 -12 -2 -21 0 -21 5
0 4 -7 11 -16 14 -10 4 -13 2 -8 -7 6 -9 5 -9 -8 0 -8 7 -18 10 -21 6 -4 -3
-7 -1 -7 5 0 7 -12 12 -26 12 -14 0 -23 4 -19 9 3 6 -4 8 -15 6 -13 -3 -20 2
-21 13 0 14 -2 13 -9 -3 -6 -14 -9 -16 -10 -5 -2 8 -2 19 -1 23 1 5 -3 6 -9 2
-6 -3 -7 -12 -3 -18 3 -7 -2 -5 -13 4 -10 9 -29 15 -41 14 -12 -1 -20 2 -17 7
5 8 0 10 -28 12 -7 1 -16 5 -19 9 -3 4 -16 9 -27 10 -12 1 -22 5 -22 10 0 4
-4 6 -9 2 -6 -3 -14 3 -20 12 -8 14 -10 15 -11 3 0 -12 -2 -12 -9 -2 -4 8 -11
13 -15 13 -22 -3 -36 0 -32 7 3 5 -1 9 -9 9 -8 0 -11 -5 -8 -11 3 -6 -7 0 -23
14 -15 14 -22 17 -15 7 12 -15 12 -17 -3 -11 -9 3 -16 11 -16 16 0 6 -7 8 -15
4 -8 -3 -15 -1 -15 5 0 6 -7 9 -15 5 -8 -3 -15 -1 -15 4 0 6 -12 10 -26 10
-20 0 -25 4 -20 18 5 15 4 15 -6 1 -10 -15 -13 -15 -31 5 -10 11 -15 15 -11 7
4 -9 2 -12 -7 -9 -8 3 -13 10 -12 15 1 5 -12 8 -28 7 -16 -1 -29 2 -29 8 0 5
-4 6 -10 3 -5 -3 -10 -1 -10 5 0 7 -8 9 -19 5 -12 -3 -21 0 -25 10 -6 17 -22
20 -31 5z m2110 -740 c3 -5 1 -10 -4 -10 -6 0 -11 5 -11 10 0 6 2 10 4 10 3 0
8 -4 11 -10z"/>
<path d="M3302 9609 c-18 -11 -38 -17 -43 -13 -5 3 -8 0 -7 -8 2 -7 -5 -12
-14 -12 -10 1 -20 -7 -23 -17 -4 -10 -17 -22 -31 -25 -13 -3 -22 -9 -20 -13 2
-3 -2 -12 -10 -19 -8 -7 -14 -10 -14 -7 0 3 -13 -8 -30 -25 -16 -17 -30 -35
-30 -40 0 -5 -8 -7 -17 -3 -10 3 -15 3 -11 -1 6 -8 -27 -47 -39 -45 -3 0 -10
-6 -15 -15 -14 -25 -31 -19 -26 9 3 14 1 28 -4 31 -4 3 -7 0 -6 -7 2 -7 -6
-13 -17 -14 -11 0 -19 -6 -17 -13 1 -6 -1 -11 -5 -11 -22 4 -33 -2 -27 -13 5
-8 2 -9 -9 -5 -10 3 -17 2 -17 -3 0 -5 -8 -16 -17 -26 -10 -10 -18 -21 -18
-26 0 -4 -3 -8 -7 -8 -16 0 -44 -36 -40 -49 3 -8 1 -12 -5 -8 -6 4 -24 -9 -41
-28 -17 -18 -27 -35 -21 -37 5 -2 -3 -8 -19 -14 -28 -11 -29 -10 -28 15 0 14
-4 25 -10 24 -5 -1 -10 6 -11 15 -3 47 -8 70 -15 66 -7 -5 -12 18 -9 39 0 4
-3 7 -9 7 -5 0 -10 7 -10 16 0 8 -4 13 -9 10 -5 -4 -7 2 -4 12 5 20 -21 47
-36 38 -6 -4 -8 -13 -4 -21 6 -18 -32 -21 -43 -3 -5 7 -2 9 7 4 8 -4 5 1 -6
11 -12 10 -24 26 -28 36 -4 10 -11 16 -16 13 -5 -3 -11 4 -14 15 -3 12 -10 18
-15 15 -5 -3 -14 6 -20 20 -8 15 -23 27 -42 30 -16 4 -27 10 -25 14 4 6 -15 7
-32 1 -1 -1 1 -11 6 -24 7 -19 5 -23 -10 -24 -11 -1 -17 2 -14 8 4 5 -1 9 -10
9 -10 0 -14 5 -9 13 5 9 4 9 -6 1 -9 -9 -17 -7 -32 8 -12 12 -28 18 -39 15
-10 -3 -17 -2 -14 3 3 4 -2 11 -11 14 -8 3 -12 2 -9 -4 3 -6 0 -10 -7 -10 -10
0 -10 -2 1 -9 8 -5 16 -20 18 -33 2 -17 1 -19 -6 -8 -5 8 -8 17 -5 21 2 4 -8
6 -23 5 -36 -4 -55 3 -46 18 3 6 3 8 -2 4 -4 -4 -17 -2 -29 4 -26 14 -96 19
-96 6 0 -5 6 -11 14 -14 12 -4 14 -17 7 -42 -1 -1 -10 2 -21 8 -14 8 -20 8
-20 0 0 -7 -7 -7 -21 1 -17 8 -20 8 -14 -1 5 -9 1 -10 -14 -5 -13 4 -29 1 -38
-7 -12 -9 -15 -9 -9 0 5 8 1 12 -11 12 -11 0 -25 -6 -32 -12 -11 -11 -12 -10
-6 2 8 13 7 13 -8 1 -9 -7 -17 -10 -17 -5 0 5 -6 2 -13 -6 -7 -8 -19 -15 -27
-15 -9 0 -16 -11 -18 -25 -2 -20 -1 -22 7 -10 9 13 11 13 11 -2 0 -12 5 -15
17 -11 12 5 14 3 8 -8 -7 -11 -5 -11 10 1 17 14 18 13 12 -2 -4 -12 -2 -15 7
-12 17 7 46 -33 39 -52 -3 -8 -9 -12 -13 -9 -4 3 -11 -2 -14 -11 -4 -10 -2
-13 7 -8 9 5 9 4 0 -7 -17 -17 -16 -26 2 -26 8 0 15 4 15 9 0 4 8 8 18 8 10 0
24 6 31 13 9 7 12 8 7 0 -4 -7 1 -9 15 -6 14 4 17 8 9 13 -7 4 4 7 24 6 19 -1
39 -6 43 -10 11 -10 11 -30 1 -37 -5 -3 -4 -16 1 -30 5 -13 10 -18 10 -11 1 7
5 11 10 8 5 -3 14 0 20 8 6 7 22 12 36 10 14 -1 25 2 25 7 0 14 28 11 33 -3 3
-8 6 -5 6 6 1 14 4 16 14 7 8 -6 18 -7 23 -3 4 4 2 -2 -6 -12 -11 -14 -11 -18
-2 -12 9 5 13 3 11 -5 -5 -38 6 -43 54 -24 12 5 16 3 14 -6 -2 -8 -2 -11 0 -6
3 4 10 4 15 1 6 -4 8 -2 4 4 -3 6 -2 13 4 17 9 6 14 -8 11 -28 -1 -5 3 -5 9
-2 6 4 9 14 5 23 -4 12 1 10 18 -6 13 -12 28 -19 33 -15 5 5 0 -3 -11 -16 -11
-14 -14 -21 -7 -17 6 4 12 3 12 -3 0 -5 -3 -11 -7 -14 -5 -2 -3 -2 4 -1 7 2
15 -1 19 -7 3 -6 12 -8 19 -5 7 2 18 -1 25 -7 10 -9 11 -9 6 0 -4 7 0 10 11 8
10 -2 26 -4 35 -4 10 -1 15 -7 12 -14 -3 -10 -18 -13 -47 -10 -23 3 -44 6 -46
9 -2 2 -10 -4 -18 -14 -8 -9 -12 -12 -9 -6 3 7 -4 14 -17 16 -18 3 -23 0 -25
-16 -1 -17 1 -18 8 -6 8 13 10 13 10 -1 0 -9 -11 -21 -25 -27 -21 -10 -27 -9
-31 3 -4 8 -10 12 -15 9 -5 -3 -6 -10 -3 -16 5 -7 2 -8 -7 -3 -20 13 -50 13
-55 1 -2 -6 -21 -11 -42 -11 -20 0 -53 -7 -72 -17 -25 -12 -39 -13 -48 -6 -9
8 -11 7 -6 -7 5 -13 4 -16 -4 -11 -7 4 -12 2 -12 -3 0 -6 -10 -11 -22 -11 -21
-1 -21 -2 -5 -11 10 -6 24 -9 30 -6 7 3 13 -3 13 -14 0 -17 -15 -24 -39 -20
-5 1 -6 -3 -3 -8 4 -5 2 -12 -4 -16 -5 -3 -10 0 -10 7 -1 8 -7 5 -16 -7 -8
-11 -18 -20 -22 -20 -4 0 -6 -3 -5 -7 2 -4 -4 -5 -12 -2 -8 4 -15 1 -15 -6 0
-6 -6 -8 -12 -5 -7 4 -4 -1 7 -10 19 -17 19 -17 -10 -10 -25 5 -28 4 -17 -7 7
-7 20 -13 29 -13 9 0 18 -7 20 -15 4 -13 3 -13 -6 0 -10 15 -12 13 -15 -12 0
-6 -7 -13 -15 -16 -9 -3 -11 0 -6 8 5 9 4 11 -4 6 -6 -4 -9 -12 -6 -17 4 -5 1
-9 -5 -9 -6 0 -8 -5 -4 -12 5 -8 2 -9 -9 -5 -11 4 -17 1 -17 -8 0 -8 -7 -15
-16 -15 -9 0 -12 -5 -8 -11 4 -7 -4 -20 -17 -31 -13 -11 -17 -18 -9 -15 9 3
24 -1 35 -9 10 -8 13 -14 6 -14 -7 0 -9 -4 -6 -10 3 -5 1 -10 -4 -10 -6 0 -11
-5 -11 -11 0 -5 6 -7 13 -3 6 4 4 -2 -5 -13 -10 -11 -18 -29 -18 -41 0 -12 -4
-22 -9 -22 -4 0 -8 -8 -8 -17 0 -43 -3 -54 -15 -47 -7 5 -8 3 -2 -7 17 -27 15
-49 -4 -43 -16 5 -16 5 1 -6 16 -10 26 -36 9 -26 -4 2 -9 -5 -9 -17 -2 -17 0
-19 7 -7 5 8 10 10 10 4 0 -7 8 -15 17 -18 10 -4 14 -4 10 0 -4 4 -1 14 6 22
10 13 9 15 -3 8 -8 -4 -3 2 13 14 15 12 27 28 27 36 0 8 5 14 11 14 5 0 7 6 4
13 -4 6 -1 5 7 -4 15 -18 59 -35 57 -22 -3 19 2 34 9 29 5 -3 6 9 4 25 -3 21
1 35 14 45 11 9 13 13 7 9 -9 -4 -11 -1 -7 9 3 9 11 13 18 9 6 -4 5 1 -3 10
-12 15 -11 17 3 17 9 0 16 5 16 11 0 6 9 1 20 -12 14 -17 18 -19 14 -6 -5 13
-2 16 10 11 12 -5 15 -2 9 12 -3 10 -2 15 3 12 5 -4 10 8 11 25 0 17 7 35 14
41 8 6 14 17 15 24 2 28 4 33 13 28 5 -4 11 -1 13 6 3 8 11 5 23 -9 22 -26 45
-20 37 9 -3 14 -1 19 6 14 8 -5 10 -1 5 10 -5 13 -3 16 10 11 11 -4 14 -2 10
9 -3 7 0 14 7 14 6 0 8 5 5 10 -3 6 1 10 10 10 11 0 15 5 11 16 -3 8 -2 12 4
9 6 -3 10 -1 10 6 0 7 3 10 6 6 8 -8 33 16 27 25 -2 4 3 5 11 2 9 -3 14 -10
11 -14 -3 -4 2 -14 11 -21 12 -10 15 -10 12 1 -2 8 3 15 10 16 6 1 17 2 23 3
5 0 7 6 3 13 -5 8 -2 9 9 5 10 -3 17 -2 17 4 0 6 4 8 9 5 5 -3 11 1 15 9 3 8
12 15 20 15 8 0 22 7 30 16 9 8 16 11 16 5 0 -6 5 -11 11 -11 5 0 7 5 3 12 -5
8 -2 9 11 4 16 -6 16 -4 4 11 -10 12 -10 15 -1 9 7 -4 19 -2 27 4 8 6 18 9 24
6 5 -3 12 0 14 6 4 9 6 8 6 -2 1 -15 -69 -65 -89 -65 -6 0 -10 -4 -9 -9 1 -13
-29 -28 -41 -21 -6 4 -9 1 -8 -7 2 -7 -3 -12 -9 -11 -12 3 -17 -9 -14 -29 0
-4 -5 -5 -13 -2 -7 3 -19 -2 -26 -12 -18 -21 -22 -47 -7 -37 18 11 36 12 43 2
3 -5 -4 -9 -15 -9 -14 0 -19 -5 -15 -15 4 -10 0 -13 -15 -10 -13 2 -18 -1 -15
-10 3 -7 0 -16 -7 -21 -8 -5 -10 -3 -4 7 5 8 -8 -3 -28 -24 -20 -21 -42 -35
-48 -31 -8 5 -8 1 0 -14 9 -17 8 -19 -8 -15 -10 3 -22 -1 -26 -8 -5 -8 -4 -10
3 -5 8 5 10 2 6 -8 -3 -9 -10 -14 -14 -11 -5 3 -11 1 -15 -5 -3 -5 -1 -10 6
-10 7 0 9 -3 5 -7 -4 -5 -13 -8 -19 -8 -7 0 -12 -7 -12 -15 0 -8 -7 -21 -15
-28 -13 -12 -13 -13 0 -7 8 4 6 -1 -4 -9 -11 -9 -16 -16 -12 -16 5 0 3 -6 -3
-13 -6 -8 -8 -17 -4 -20 3 -4 2 -7 -3 -7 -5 0 -10 -12 -11 -27 -1 -16 2 -21 7
-13 4 7 13 9 19 6 6 -4 14 0 17 8 3 9 10 14 14 11 11 -7 -18 -65 -35 -72 -8
-2 -11 -12 -8 -20 4 -10 2 -14 -3 -10 -10 6 -36 -22 -37 -39 -1 -12 -21 -33
-28 -28 -3 1 -5 -7 -5 -19 1 -12 -4 -21 -10 -20 -6 1 -11 -3 -12 -10 0 -7 -3
-24 -6 -39 -5 -23 -3 -25 14 -21 15 4 18 9 10 18 -9 11 -7 12 10 8 12 -3 29 2
42 13 12 11 18 14 15 7 -4 -6 -3 -14 2 -18 6 -3 8 -12 5 -20 -4 -8 -10 -12
-15 -9 -5 3 -9 1 -9 -5 0 -5 6 -12 13 -14 10 -4 10 -6 0 -6 -7 -1 -13 -7 -13
-15 0 -8 -5 -16 -10 -18 -6 -2 -12 -13 -13 -25 0 -12 -4 -21 -7 -21 -17 1 -21
-4 -11 -16 9 -11 9 -16 0 -22 -8 -5 -9 -3 -4 6 5 9 4 11 -4 6 -7 -4 -10 -13
-8 -19 2 -7 -3 -18 -12 -25 -13 -11 -13 -12 -1 -6 10 5 8 -1 -5 -16 -11 -13
-14 -20 -7 -16 15 9 15 7 -2 -42 -13 -35 -13 -40 0 -38 8 1 24 17 34 34 11 18
23 32 27 32 3 0 3 -3 0 -7 -4 -3 -2 -12 4 -20 9 -9 8 -13 0 -13 -9 0 -9 -5 0
-21 7 -13 7 -19 1 -15 -6 3 -13 2 -17 -4 -3 -5 -1 -10 6 -10 8 0 9 -4 0 -13
-8 -10 -7 -17 2 -27 8 -9 9 -11 0 -6 -6 3 -14 2 -18 -4 -3 -5 -2 -10 3 -10 12
0 2 -63 -12 -72 -8 -6 -8 -8 0 -8 8 0 11 -19 10 -52 -1 -29 3 -59 8 -66 7 -9
5 -16 -3 -22 -10 -6 -9 -10 5 -19 11 -6 13 -11 6 -11 -7 0 -10 -5 -7 -10 4 -6
10 -8 14 -6 4 3 8 -1 9 -9 1 -8 3 -22 4 -30 1 -8 5 -12 10 -9 5 4 7 8 4 11 -3
3 -1 14 5 24 7 14 6 19 -3 19 -7 1 -2 7 12 15 14 8 20 14 13 15 -14 0 -13 40
0 40 5 0 4 6 -2 13 -8 10 -6 19 10 35 11 12 16 22 11 22 -5 0 -9 7 -9 15 0 8
4 12 9 9 4 -3 8 4 8 15 0 12 5 21 12 21 6 0 9 -3 5 -6 -3 -3 3 -16 14 -27 11
-12 15 -23 9 -25 -16 -6 -12 -22 6 -22 8 0 12 -4 9 -10 -3 -5 -1 -10 5 -10 6
0 9 -4 5 -9 -3 -5 1 -16 9 -24 8 -8 13 -17 11 -21 -3 -3 -2 -3 3 0 4 3 7 11 7
17 1 7 6 11 13 10 9 -2 9 3 0 22 -6 14 -16 25 -22 25 -6 0 -4 5 4 10 13 9 13
11 0 20 -12 8 -12 10 -1 10 11 0 11 3 0 17 -12 15 -12 16 1 8 13 -8 13 -7 1 8
-10 13 -10 17 -1 17 9 0 9 4 -1 17 -12 15 -12 16 1 8 12 -6 13 -5 3 5 -10 11
-9 16 5 27 15 11 15 12 0 7 -11 -4 -16 0 -15 13 1 10 7 22 12 26 6 6 6 10 -2
13 -10 4 -10 8 0 19 13 14 27 11 27 -6 0 -6 -5 -7 -12 -3 -7 4 -8 3 -4 -5 4
-6 11 -9 16 -6 9 5 32 -19 25 -27 -3 -2 2 -5 10 -5 8 0 15 4 15 9 0 5 6 6 13
3 6 -4 3 1 -7 9 -11 9 -15 16 -10 16 6 0 11 30 12 66 1 37 7 74 14 82 8 9 8
13 2 9 -7 -4 -14 4 -17 20 -5 25 -4 26 8 9 12 -16 13 -13 11 24 -2 22 0 43 4
45 3 2 5 18 4 34 -1 17 2 34 7 37 5 3 6 10 3 16 -5 8 -1 9 10 5 10 -4 21 -7
26 -7 7 0 23 -38 21 -52 0 -4 6 -5 14 -2 8 4 12 10 9 15 -3 6 0 17 8 26 7 9 8
14 2 10 -7 -4 -14 0 -17 8 -4 9 -1 12 9 8 9 -3 14 1 14 12 0 9 -4 14 -9 11 -5
-4 -7 3 -4 14 3 11 9 20 14 20 4 0 6 9 4 20 -2 11 0 22 6 25 14 9 11 27 -3 20
-7 -4 -5 0 5 8 20 16 23 31 5 22 -7 -4 -4 1 6 9 15 12 16 16 5 16 -12 0 -12 2
1 10 8 5 11 10 6 10 -5 0 -3 7 4 15 6 8 9 19 5 25 -3 5 -1 10 5 10 6 0 9 4 6
8 -2 4 4 8 14 9 11 1 17 -3 14 -11 -7 -17 42 -15 58 4 11 12 11 12 -2 3 -13
-10 -16 -8 -16 7 0 10 3 17 7 14 10 -6 16 16 14 54 -2 28 0 30 13 20 13 -11
14 -10 3 10 -7 14 -9 28 -4 35 5 7 9 23 8 37 0 14 6 31 15 38 8 8 10 11 4 8
-8 -4 -8 6 0 34 8 32 15 40 33 40 20 0 22 -4 17 -25 -4 -17 -2 -25 7 -25 7 0
9 -3 6 -7 -4 -3 -1 -13 6 -21 9 -13 9 -14 0 -8 -7 4 -13 3 -13 -2 0 -6 8 -13
17 -16 15 -6 15 -8 3 -16 -10 -7 -11 -10 -2 -10 6 0 12 -9 12 -21 0 -13 4 -18
12 -13 8 5 9 2 5 -11 -4 -9 -2 -24 5 -32 16 -20 20 -45 5 -36 -7 4 -6 0 1 -10
8 -9 10 -22 6 -28 -4 -7 -3 -9 4 -5 6 3 13 2 17 -4 3 -5 2 -10 -3 -10 -5 0 -9
-7 -9 -15 0 -8 4 -12 8 -10 4 3 9 -2 13 -10 3 -8 0 -15 -7 -15 -7 0 -4 -5 6
-11 10 -6 17 -22 17 -39 0 -17 5 -30 11 -30 8 0 8 -5 -1 -15 -10 -12 -10 -15
0 -15 7 0 10 -8 7 -19 -3 -12 3 -27 13 -36 11 -10 15 -25 12 -40 -3 -17 0 -25
9 -25 11 0 11 -2 -1 -10 -13 -9 -13 -10 0 -10 13 0 13 -1 0 -10 -13 -8 -12
-10 4 -10 14 0 16 -3 7 -13 -8 -10 -7 -17 2 -26 6 -6 13 -26 14 -44 4 -51 6
-57 14 -57 5 0 5 -7 2 -17 -5 -12 -3 -14 7 -8 10 6 10 4 2 -11 -8 -14 -6 -21
6 -32 12 -9 12 -11 2 -6 -12 7 -13 5 -3 -8 7 -8 10 -17 7 -20 -3 -4 2 -21 12
-40 16 -30 16 -32 0 -19 -14 12 -16 12 -10 -3 3 -9 9 -16 13 -16 4 0 8 -15 9
-34 2 -46 5 -60 17 -68 6 -5 4 -8 -5 -8 -11 0 -12 -2 -3 -8 7 -4 13 -29 14
-55 2 -35 6 -47 18 -48 10 0 11 -3 4 -5 -9 -4 -9 -13 -3 -30 7 -18 7 -23 -1
-18 -8 4 -8 0 0 -15 7 -11 9 -21 6 -21 -3 0 -1 -8 4 -19 6 -10 7 -21 4 -25
-12 -12 -12 -38 0 -33 8 3 12 -10 12 -39 -1 -24 3 -44 8 -44 5 0 5 -6 -2 -13
-8 -10 -7 -17 1 -25 7 -7 8 -12 4 -12 -5 0 -2 -8 5 -17 8 -9 9 -14 3 -10 -7 4
-14 0 -18 -8 -3 -8 0 -17 6 -21 7 -5 8 -2 3 6 -5 9 -4 11 3 6 8 -4 8 -15 2
-31 -7 -18 -5 -28 5 -38 11 -11 11 -17 2 -27 -9 -10 -9 -11 1 -5 11 6 12 3 3
-13 -8 -14 -8 -23 -1 -27 8 -5 8 -11 0 -20 -8 -10 -8 -15 1 -20 7 -5 9 -22 6
-46 -3 -22 -2 -37 2 -34 11 6 7 -39 -4 -47 -6 -5 -5 -8 3 -8 9 0 11 -7 7 -21
-5 -15 -4 -19 5 -14 9 6 9 3 1 -14 -10 -17 -14 -19 -25 -9 -8 7 -10 15 -5 16
5 2 9 8 9 13 0 4 -7 6 -15 3 -8 -4 -15 -1 -15 6 0 6 5 8 10 5 6 -3 10 -1 10 4
0 6 -6 11 -12 11 -9 0 -8 4 2 10 11 7 12 10 2 10 -8 0 -12 6 -9 13 2 6 -5 24
-15 40 -11 15 -15 27 -9 27 8 0 8 6 0 18 -13 21 -36 25 -36 6 0 -7 6 -10 14
-7 16 6 17 -9 1 -25 -9 -9 -9 -12 1 -12 8 0 11 -7 8 -20 -3 -11 -2 -20 2 -20
8 0 10 -9 13 -55 1 -14 6 -25 10 -25 4 0 8 -7 8 -16 0 -9 5 -12 13 -8 7 5 7 1
-2 -10 -12 -15 -12 -19 -1 -26 7 -4 18 -7 24 -6 6 2 8 1 3 -1 -4 -3 -5 -9 -1
-14 3 -5 1 -9 -5 -9 -5 0 -12 6 -14 13 -4 7 -6 6 -6 -4 -1 -9 6 -22 14 -29 12
-10 13 -16 4 -26 -7 -9 -8 -14 -1 -14 6 0 9 -8 7 -17 -2 -10 -4 -22 -4 -26 -1
-4 -12 0 -25 10 -13 10 -22 21 -20 25 2 4 0 9 -6 13 -7 4 -7 13 0 26 8 15 8
19 -2 17 -8 -2 -13 8 -14 24 -1 15 -7 35 -15 45 -9 11 -10 14 -1 9 6 -4 12 -3
12 3 0 5 -5 11 -10 13 -6 2 -12 26 -13 55 -2 40 -5 50 -18 48 -9 -2 -16 3 -16
10 0 8 3 12 7 10 13 -8 6 21 -9 35 -13 13 -14 12 -8 -3 9 -23 -8 -30 -24 -10
-8 10 -9 14 -2 10 8 -5 11 0 10 13 -1 11 -5 20 -9 20 -4 0 -5 7 -2 15 4 8 11
12 17 8 6 -3 7 -1 3 6 -6 9 -11 9 -22 0 -12 -10 -13 -9 -8 5 4 9 1 16 -6 16
-10 0 -10 3 0 15 7 9 8 15 2 15 -5 0 -9 13 -8 28 1 18 -3 29 -11 29 -9 0 -11
-7 -8 -16 5 -13 4 -13 -6 -4 -10 10 -9 15 1 28 10 12 10 15 -1 15 -11 0 -11 2
1 10 12 7 12 10 1 10 -8 0 -11 6 -7 16 3 9 2 12 -5 9 -6 -4 -8 -13 -5 -20 3
-8 0 -16 -7 -19 -7 -2 -7 -5 -1 -5 5 -1 9 -14 8 -31 -1 -16 2 -30 7 -30 5 0 9
-5 9 -11 0 -5 -4 -8 -8 -5 -5 3 -9 -1 -9 -9 0 -8 4 -12 8 -10 4 3 10 -2 13
-11 3 -8 2 -12 -4 -9 -6 3 -7 -1 -4 -9 3 -9 10 -14 14 -11 10 6 8 -15 -3 -32
-5 -8 -3 -13 4 -13 8 0 7 -5 -2 -17 -8 -9 -9 -14 -3 -10 14 8 22 -17 19 -61
-1 -23 3 -32 14 -32 11 0 10 -3 -5 -14 -10 -8 -16 -18 -11 -22 4 -4 7 -2 7 5
0 7 5 9 10 6 6 -4 7 -11 4 -17 -4 -6 0 -14 7 -19 11 -7 11 -9 1 -9 -8 0 -10
-5 -5 -12 4 -7 9 -22 10 -33 3 -16 1 -17 -7 -5 -7 11 -12 12 -21 3 -8 -8 -6
-14 9 -22 10 -6 21 -8 24 -6 3 3 5 -2 5 -10 0 -11 -4 -12 -14 -4 -16 14 -18
-2 -2 -18 8 -8 7 -13 -2 -18 -8 -6 -10 -4 -4 5 6 9 4 11 -5 5 -10 -6 -10 -11
3 -20 9 -7 13 -16 9 -20 -4 -5 1 -5 11 -2 15 6 16 4 6 -14 -8 -15 -8 -19 0
-15 7 5 11 -2 11 -18 0 -14 4 -26 8 -26 7 0 32 -57 32 -73 0 -3 -10 -11 -21
-18 -12 -6 -19 -7 -15 -1 4 6 -13 11 -43 14 -40 2 -47 0 -43 -12 5 -13 3 -13
-11 -1 -10 8 -20 11 -24 7 -3 -3 -1 -6 5 -6 7 0 12 -9 12 -21 0 -11 5 -17 10
-14 9 6 14 -7 11 -31 -1 -6 6 -17 14 -24 19 -16 1 -42 -22 -33 -11 4 -14 2 -9
-5 4 -7 -3 -14 -19 -18 -13 -3 -23 -9 -21 -13 3 -4 -4 -7 -15 -8 -23 -2 -55
-24 -54 -39 0 -13 30 -44 43 -44 6 0 13 -7 16 -16 4 -9 13 -14 22 -10 8 3 13
2 11 -2 -2 -4 7 -17 20 -29 13 -12 23 -19 23 -15 0 4 10 -4 21 -18 11 -14 18
-19 14 -12 -6 11 -3 12 14 3 11 -7 21 -14 21 -17 0 -3 -5 -2 -12 2 -7 4 -8 3
-4 -4 4 -6 13 -9 21 -5 10 3 15 -1 15 -13 0 -9 3 -14 7 -11 3 4 15 -1 26 -10
12 -11 17 -12 12 -4 -5 9 2 8 24 -5 17 -10 31 -23 31 -28 0 -5 3 -7 6 -3 4 3
14 -2 23 -11 9 -10 12 -12 8 -6 -11 17 29 6 43 -11 6 -8 19 -11 27 -8 10 4 14
2 10 -4 -8 -12 20 -26 34 -17 5 3 9 -3 10 -13 0 -10 3 -13 6 -5 2 6 9 12 14
12 6 0 8 -4 5 -9 -3 -5 1 -12 10 -15 8 -3 13 -2 10 3 -4 5 3 7 14 4 11 -3 20
-10 20 -15 0 -5 5 -6 10 -3 6 3 10 0 10 -7 0 -11 2 -10 9 0 7 11 9 10 14 -3 6
-13 11 -14 28 -4 15 8 19 8 15 0 -4 -6 0 -11 9 -11 10 0 14 -5 9 -12 -5 -10
-4 -10 6 -1 10 9 18 8 38 -5 15 -9 23 -12 20 -6 -4 6 -1 11 7 11 8 0 12 -4 9
-8 -2 -4 0 -10 5 -13 5 -4 12 -2 16 4 4 7 13 7 26 -1 11 -6 27 -8 34 -5 10 3
12 0 8 -12 -6 -15 -5 -15 10 -3 14 11 17 11 17 0 0 -11 2 -11 10 1 5 8 10 10
10 5 0 -6 17 -12 38 -13 20 -2 39 -7 40 -13 3 -6 9 -5 18 2 10 8 14 8 14 0 0
-6 5 -11 11 -11 5 0 7 6 3 13 -5 8 -2 8 9 -2 9 -7 17 -11 17 -8 0 3 16 1 35
-3 23 -5 36 -4 39 4 2 6 5 2 5 -9 1 -16 3 -17 10 -6 8 13 12 13 27 0 11 -9 15
-9 10 -1 -4 7 -1 12 9 12 9 0 14 -4 11 -8 -3 -5 1 -9 9 -9 8 0 11 5 8 11 -4 6
1 5 10 -3 14 -11 17 -11 17 0 0 8 6 5 15 -7 11 -14 14 -15 9 -2 -6 17 10 19
34 5 6 -5 12 -6 12 -2 0 3 10 0 23 -6 19 -11 20 -10 10 2 -10 12 -8 15 7 15
10 0 17 -3 14 -7 -2 -4 11 -7 30 -7 19 0 40 -3 47 -8 7 -4 10 -3 5 4 -3 6 -2
13 4 17 5 3 10 1 10 -5 0 -6 4 -8 10 -5 6 3 10 0 11 -7 0 -7 4 -4 9 7 5 11 9
15 9 9 1 -7 8 -15 17 -18 9 -3 12 -2 9 4 -4 7 3 9 19 6 15 -3 24 -1 21 5 -4 5
-1 9 4 9 6 0 11 -6 11 -12 0 -10 3 -9 9 1 7 11 9 11 14 0 4 -10 6 -10 6 -1 1
6 13 12 27 12 16 0 23 -4 18 -11 -3 -6 4 -5 17 3 13 7 46 13 72 12 39 -1 47 2
42 14 -4 12 -3 13 10 2 8 -7 12 -17 8 -23 -3 -6 4 -3 17 6 17 12 27 14 37 6 9
-8 14 -7 19 5 3 9 10 16 16 16 5 0 6 -5 2 -11 -4 -8 0 -8 15 0 11 7 21 9 21 5
0 -3 7 -1 15 6 8 7 15 8 15 3 0 -5 7 -10 15 -10 8 0 12 4 9 9 -8 13 10 10 25
-4 11 -10 13 -10 7 0 -5 7 -1 12 11 13 10 1 32 2 48 3 17 0 33 6 37 11 5 6 8
4 8 -4 0 -11 4 -10 16 5 8 10 13 14 10 7 -4 -6 -2 -14 4 -18 5 -3 10 1 10 10
0 9 4 13 10 10 5 -3 19 -1 31 6 12 6 19 7 16 2 -3 -5 3 -9 13 -9 10 0 16 5 13
10 -4 5 1 7 12 3 11 -5 23 -1 32 10 8 10 11 12 7 4 -6 -11 -2 -13 17 -7 28 9
56 14 82 15 12 1 16 5 11 14 -5 7 0 6 11 -3 10 -8 16 -10 12 -3 -6 9 2 11 27
9 19 -1 35 0 34 3 -2 19 4 24 12 11 6 -10 10 -11 10 -2 0 6 5 12 11 12 5 0 7
-6 4 -12 -4 -7 -1 -6 7 2 7 9 25 15 41 13 18 -1 25 2 21 9 -5 7 -1 9 9 5 10
-4 17 -2 17 4 0 6 6 9 14 6 8 -3 17 1 20 10 5 12 9 13 21 3 9 -7 15 -8 15 -2
0 5 16 10 36 9 20 -1 39 5 44 12 4 8 13 10 19 7 6 -4 14 0 17 8 3 9 10 16 16
16 5 0 6 -4 3 -10 -3 -6 1 -7 9 -4 9 3 16 10 16 15 0 6 8 5 19 0 15 -8 22 -6
35 12 9 12 14 15 10 7 -7 -12 -5 -13 8 -3 8 7 18 10 22 6 3 -4 13 2 22 13 8
10 12 13 8 5 -5 -11 -1 -10 17 2 27 20 43 22 33 5 -4 -7 -3 -8 5 -4 6 4 9 12
6 17 -4 5 8 9 24 9 17 0 31 5 31 12 0 6 3 8 7 5 3 -4 15 1 26 10 11 10 18 13
14 7 -3 -6 1 -11 9 -11 8 0 13 6 10 14 -3 7 -2 12 2 12 22 -4 42 2 38 10 -4 5
2 7 13 4 10 -3 22 0 26 7 5 8 10 8 21 -1 12 -10 13 -9 7 6 -5 15 -3 17 10 12
11 -4 25 1 37 13 11 11 20 17 20 14 0 -4 8 0 17 7 14 12 16 12 9 -1 -6 -11 -4
-11 6 1 13 16 19 19 39 19 5 0 7 4 4 10 -4 6 1 7 11 3 12 -4 15 -3 10 5 -4 8
-2 10 7 6 8 -3 21 2 30 10 8 8 18 12 22 8 3 -4 13 2 21 12 8 11 14 16 14 12 0
-5 7 -3 15 4 8 7 15 9 15 4 0 -4 6 0 13 11 9 11 19 15 27 10 9 -5 11 -4 6 3
-6 11 5 16 26 14 3 -1 12 6 20 15 11 14 11 16 -1 8 -10 -5 -12 -4 -7 4 6 9 11
9 21 1 10 -8 15 -6 20 8 4 14 12 18 26 15 13 -4 19 -1 17 8 -2 8 3 13 10 12 6
-2 12 2 12 7 0 12 -17 13 -24 1 -3 -5 -19 -8 -35 -7 -16 1 -29 -2 -28 -7 1 -5
-9 -11 -23 -13 -13 -3 -27 -10 -31 -16 -4 -6 -14 -8 -23 -5 -9 4 -16 2 -16 -3
0 -5 -9 -7 -20 -5 -13 3 -18 0 -14 -7 5 -7 1 -9 -9 -5 -10 3 -17 2 -17 -2 0
-5 -10 -7 -22 -3 -15 4 -19 2 -13 -7 6 -10 3 -10 -16 0 -21 11 -23 11 -11 -3
11 -14 8 -15 -18 -13 -17 1 -33 -1 -36 -6 -3 -5 -10 -6 -16 -3 -7 5 -9 1 -5
-9 4 -11 2 -14 -8 -10 -8 3 -13 9 -10 13 3 5 -6 3 -19 -3 -13 -7 -23 -14 -21
-18 2 -3 -2 -6 -10 -6 -8 0 -12 3 -10 7 2 4 -2 7 -10 7 -8 0 -13 -5 -12 -11 1
-5 -13 -10 -30 -10 -18 0 -33 -4 -33 -9 0 -4 -4 -6 -9 -2 -5 3 -12 1 -16 -5
-9 -15 -27 -12 -20 3 4 6 -1 3 -9 -7 -9 -12 -16 -14 -16 -7 0 9 -5 8 -16 -3
-19 -19 -28 -21 -18 -3 6 9 5 9 -8 0 -8 -7 -18 -10 -21 -6 -4 3 -7 2 -7 -4 0
-6 -9 -9 -20 -6 -10 3 -26 -2 -34 -10 -9 -9 -25 -12 -42 -9 -21 4 -25 2 -19
-9 6 -11 5 -11 -5 -2 -7 6 -19 9 -26 6 -8 -3 -14 1 -14 11 0 9 -5 16 -11 16
-5 0 -7 -6 -4 -12 4 -7 1 -6 -7 3 -7 9 -19 14 -27 11 -8 -3 -11 0 -7 7 5 7 -1
11 -14 11 -12 0 -19 4 -16 9 4 5 -3 7 -14 4 -12 -3 -20 0 -20 8 0 7 -3 9 -7 6
-3 -4 -15 1 -26 10 -11 10 -17 12 -13 6 10 -18 -9 -16 -24 2 -7 9 -19 14 -26
11 -7 -3 -18 2 -24 9 -8 10 -17 12 -29 5 -9 -5 -22 -6 -28 -2 -6 4 -41 7 -77
7 -54 0 -65 3 -61 15 3 9 -1 7 -10 -4 -8 -11 -15 -14 -15 -7 0 7 -5 9 -11 5
-6 -4 -30 -8 -53 -9 -22 -1 -50 -6 -60 -10 -14 -6 -17 -5 -11 4 6 10 3 11 -12
2 -11 -6 -24 -7 -28 -3 -5 4 -5 2 -2 -4 4 -7 0 -14 -8 -18 -8 -3 -15 -1 -15 4
0 5 -16 1 -35 -10 -24 -13 -35 -16 -35 -7 -1 6 -7 1 -15 -13 -8 -14 -14 -19
-15 -11 0 11 -5 9 -22 -5 -12 -10 -18 -13 -14 -7 5 9 2 11 -9 7 -9 -4 -14 -12
-11 -19 3 -8 -2 -11 -15 -8 -10 3 -19 1 -19 -5 0 -9 -30 -25 -50 -27 -3 0 -16
-10 -30 -23 -13 -12 -30 -22 -37 -22 -8 0 -18 -10 -23 -22 -5 -13 -9 -17 -9
-10 -1 6 -6 12 -12 12 -5 0 -7 -5 -3 -12 4 -7 3 -8 -4 -4 -6 4 -8 14 -5 24 6
15 5 16 -12 2 -17 -14 -18 -13 -12 2 4 13 1 16 -14 13 -10 -2 -19 0 -19 5 0 5
-16 14 -35 20 -19 6 -35 15 -35 19 0 4 -8 7 -17 8 -49 4 -60 8 -56 20 3 9 0
11 -10 7 -9 -3 -25 0 -37 6 -18 10 -21 9 -14 -1 4 -7 -8 -2 -26 11 -18 13 -30
19 -26 12 4 -7 1 -12 -7 -12 -8 0 -17 7 -20 15 -5 12 -20 14 -52 4 -5 -2 -21
3 -34 10 -14 8 -21 9 -17 2 4 -6 2 -11 -3 -11 -6 0 -11 4 -11 8 0 4 -9 8 -20
9 -11 1 -18 -2 -15 -7 3 -4 -3 -7 -12 -5 -10 2 -22 4 -26 4 -5 1 -6 5 -3 10 4
5 -3 7 -14 4 -11 -3 -28 1 -37 8 -11 9 -14 10 -9 2 5 -9 2 -11 -8 -7 -8 3 -12
13 -9 22 4 13 3 14 -5 3 -5 -7 -15 -10 -21 -7 -6 4 -21 9 -33 11 -12 3 -25 10
-29 16 -5 8 -8 7 -12 -2 -4 -10 -6 -8 -6 4 -1 10 -5 15 -11 12 -5 -3 -11 -1
-11 4 -4 36 -20 71 -31 71 -5 0 -8 7 -5 14 4 11 1 13 -11 9 -14 -5 -15 -3 -5
7 10 11 9 16 -5 26 -9 7 -17 16 -17 21 -1 4 -9 23 -18 41 -10 17 -14 32 -10
32 4 0 -2 6 -12 14 -10 7 -19 19 -21 27 -5 32 -10 44 -22 58 -7 7 -11 20 -8
28 3 8 1 11 -4 8 -6 -3 -10 -2 -10 2 0 5 -10 9 -21 10 -12 1 -19 -1 -15 -4 3
-3 0 -13 -7 -21 -10 -13 -9 -15 3 -8 9 4 8 1 -2 -7 -10 -8 -18 -19 -18 -25 0
-5 -7 -13 -16 -16 -8 -3 -13 -10 -10 -15 3 -5 -3 -7 -14 -4 -11 3 -20 10 -20
15 0 5 5 6 10 3 6 -3 10 -1 10 4 0 6 -4 11 -9 11 -5 0 -11 9 -14 21 -4 15 -2
18 7 10 9 -7 12 -3 14 16 1 14 6 31 12 38 5 6 7 15 3 18 -3 4 2 7 13 7 16 0
17 2 4 10 -13 9 -8 14 11 12 4 -1 5 8 2 18 -3 11 0 20 6 20 6 0 8 7 4 17 -4
11 -3 14 5 9 11 -6 17 12 13 37 0 4 7 7 16 7 15 0 16 2 3 10 -10 6 -11 10 -2
10 6 0 12 7 12 15 0 8 5 15 10 15 6 0 9 3 9 8 -3 20 2 32 13 26 7 -4 8 -3 4 5
-4 6 0 18 8 27 9 8 16 24 16 35 0 11 6 22 14 25 8 3 12 12 9 20 -3 7 2 17 11
20 9 3 13 10 10 15 -3 5 0 9 5 9 6 0 10 6 9 13 -2 6 2 11 9 10 7 -2 10 6 8 18
-3 14 0 19 9 16 10 -4 12 1 8 15 -4 17 -2 20 13 14 14 -5 16 -4 6 8 -9 11 -8
15 3 19 17 7 48 66 40 78 -3 5 3 6 12 2 12 -4 15 -3 10 5 -4 7 -2 12 4 12 6 0
9 4 6 8 -3 5 4 14 14 22 10 8 17 17 14 22 -3 4 0 8 6 8 6 0 8 5 5 10 -3 6 -1
10 5 10 6 0 8 5 5 10 -4 6 -1 9 7 8 7 -2 13 4 13 12 0 8 10 22 23 31 12 8 19
18 16 22 -4 4 1 9 10 13 9 3 14 10 11 14 -3 4 2 11 11 14 8 3 12 11 9 17 -4 6
2 13 14 16 11 3 18 9 15 14 -3 5 2 12 10 15 9 3 13 10 10 16 -3 5 3 12 15 15
11 3 18 9 15 14 -3 5 0 9 6 9 6 0 8 5 4 12 -4 6 -3 8 3 5 8 -5 11 -72 3 -72
-1 0 -3 -11 -6 -25 -3 -20 -2 -22 7 -10 9 13 10 12 5 -3 -3 -10 -6 -21 -6 -23
0 -3 -4 -3 -9 1 -5 3 -13 0 -17 -6 -5 -8 -3 -9 5 -4 10 5 12 -4 10 -39 -2 -25
1 -49 6 -53 4 -4 5 -2 1 5 -5 8 1 12 18 12 14 0 26 -5 26 -11 0 -5 -5 -7 -12
-3 -7 5 -8 3 -3 -6 9 -15 8 -93 -1 -124 -5 -14 -3 -16 7 -10 12 6 12 5 0 -9
-7 -9 -10 -17 -6 -17 5 0 0 -10 -11 -22 -19 -22 -19 -22 0 -8 18 14 19 13 13
-2 -4 -12 -2 -15 8 -11 8 3 12 9 9 14 -3 5 2 9 11 9 10 0 13 5 9 12 -4 6 -3 8
2 5 13 -8 8 -105 -6 -122 -7 -8 -9 -19 -5 -25 3 -5 2 -10 -4 -10 -6 0 -8 -6
-5 -14 3 -8 0 -17 -6 -21 -8 -5 -7 -11 2 -23 10 -12 10 -14 1 -8 -9 5 -13 -1
-13 -23 0 -37 17 -49 35 -25 13 17 14 15 9 -21 -2 -21 -9 -42 -16 -46 -6 -4
-8 -15 -4 -24 5 -13 2 -16 -9 -11 -13 4 -14 2 -5 -14 11 -21 19 -24 44 -14 9
3 13 11 9 17 -3 5 -2 7 4 4 6 -4 9 -17 9 -29 -1 -13 2 -31 7 -42 7 -14 6 -16
-4 -11 -9 6 -11 3 -6 -8 3 -10 3 -17 -2 -17 -9 0 -7 -27 5 -57 l9 -23 13 21
c8 12 9 18 3 14 -6 -3 -11 -2 -11 3 0 6 7 13 16 16 14 5 14 9 3 23 -8 9 -9 14
-4 11 6 -4 17 2 24 14 7 11 8 17 2 14 -7 -4 -8 -1 -5 8 3 9 10 14 14 11 5 -3
6 5 2 17 -4 16 -2 19 9 13 12 -8 12 -6 0 8 -9 12 -10 17 -2 17 7 0 9 5 6 10
-3 6 -2 10 3 10 6 0 8 8 5 19 -5 18 20 36 37 26 5 -3 7 4 5 15 -2 11 0 18 6
15 5 -4 9 6 9 20 0 14 -4 24 -8 21 -5 -3 -9 2 -9 10 0 9 6 13 15 9 12 -4 13
-3 2 10 -7 8 -9 15 -6 15 4 0 2 9 -4 20 -8 15 -8 20 2 20 6 0 4 6 -7 13 -14
11 -15 16 -5 22 9 6 11 4 5 -5 -5 -8 -4 -11 3 -6 6 4 9 13 6 21 -4 8 -10 12
-15 9 -5 -3 -6 2 -2 11 4 12 8 13 13 5 5 -7 13 -9 20 -5 8 5 11 4 7 -2 -4 -6
0 -14 9 -17 12 -5 15 -2 10 9 -3 9 -2 13 3 10 5 -3 12 -1 16 5 6 9 -8 14 -28
11 -5 -1 -6 3 -2 9 3 6 11 7 17 4 6 -4 6 0 -1 13 -6 11 -7 23 -4 27 3 3 0 6
-8 6 -11 0 -11 2 1 10 13 8 12 10 -2 10 -10 0 -18 5 -18 11 0 5 5 7 10 4 15
-9 12 2 -6 19 -8 9 -11 16 -5 16 6 0 11 5 11 11 0 5 -4 8 -9 4 -5 -3 -12 -1
-15 4 -9 14 19 7 40 -9 11 -9 15 -10 10 -2 -4 6 -3 12 3 12 11 0 9 26 -4 37
-4 4 -5 3 -1 -4 3 -6 3 -14 -2 -17 -4 -2 -7 18 -6 45 0 27 -2 47 -4 44 -3 -3
-11 7 -17 22 -9 20 -9 30 -1 35 7 5 4 8 -6 8 -10 0 -19 5 -19 10 -1 6 -3 15
-4 20 -1 6 -3 15 -4 21 0 5 -7 7 -13 3 -7 -4 -10 -4 -6 1 4 4 2 15 -5 23 -10
13 -9 14 2 8 10 -7 12 -3 6 13 -4 14 -2 22 7 23 7 0 18 2 23 2 6 1 16 5 23 9
7 5 12 3 12 -3 0 -6 4 -9 9 -5 5 3 12 1 16 -5 3 -5 0 -10 -7 -10 -10 0 -9 -3
2 -9 8 -6 17 -8 20 -6 4 2 7 -8 7 -23 1 -71 2 -73 23 -62 11 6 21 8 21 5 1 -3
2 -9 3 -14 0 -5 4 -13 8 -16 4 -4 3 -16 -2 -26 -7 -12 -7 -20 0 -24 8 -5 7
-12 -2 -23 -10 -12 -10 -14 0 -8 8 5 12 0 13 -16 0 -22 1 -22 9 -3 5 11 9 14
9 8 1 -7 8 -13 16 -13 8 0 15 -5 15 -11 0 -5 -3 -8 -7 -6 -5 3 -8 -6 -8 -19 0
-13 4 -24 9 -24 6 0 2 -6 -9 -13 -13 -10 -15 -16 -6 -21 6 -4 9 -12 6 -17 -4
-5 -1 -9 4 -9 6 0 11 5 11 11 0 8 6 7 17 -2 11 -10 14 -10 9 -1 -4 6 -3 12 2
12 15 0 21 -37 9 -49 -8 -8 -7 -11 2 -11 7 0 11 -6 8 -14 -7 -18 18 -15 36 4
10 10 9 12 -7 6 -15 -5 -17 -4 -8 7 7 8 8 18 4 23 -4 4 1 2 10 -5 16 -12 16
-10 8 18 -5 17 -5 31 -2 31 4 0 7 19 6 43 -1 23 3 51 9 62 13 24 10 57 -7 67
-7 5 -6 8 4 9 10 0 9 3 -4 8 -22 8 -30 37 -14 48 6 3 8 2 5 -4 -3 -5 0 -10 7
-10 11 0 12 4 3 18 -6 10 -15 15 -20 12 -4 -3 -8 1 -6 8 3 27 -1 40 -11 34 -5
-3 -10 1 -10 10 0 10 -6 15 -13 12 -8 -3 -14 1 -14 9 0 7 4 11 9 8 4 -3 8 0 8
6 0 6 5 8 12 4 6 -4 3 4 -8 18 -10 14 -22 24 -26 21 -5 -2 -8 1 -8 7 0 6 -4 8
-10 5 -5 -3 -10 1 -10 11 0 14 -3 14 -15 4 -13 -11 -14 -10 -9 6 4 10 3 16 -1
11 -5 -4 -17 1 -28 10 -11 10 -17 12 -13 6 4 -7 2 -13 -3 -13 -6 0 -11 6 -11
14 0 9 -7 13 -19 11 -11 -2 -22 3 -25 11 -3 8 -2 13 3 10 5 -3 12 1 15 10 4 9
2 13 -5 8 -6 -4 -15 0 -20 7 -6 10 -9 11 -9 2 0 -7 -5 -13 -10 -13 -6 0 -9 6
-8 13 2 7 -5 11 -17 9 -15 -2 -17 -1 -6 7 8 5 21 7 29 3 11 -4 13 -2 7 9 -7
12 -6 12 7 1 13 -10 15 -9 13 12 -2 14 2 23 8 22 47 -10 66 -19 60 -30 -4 -6
0 -6 9 2 13 10 17 10 21 0 4 -11 6 -10 6 0 1 7 5 10 11 7 5 -3 7 0 4 9 -4 11
0 14 16 11 12 -2 28 -9 34 -15 7 -5 16 -7 20 -3 4 4 9 -2 12 -14 4 -13 11 -20
20 -16 8 3 12 8 9 13 -2 4 3 16 11 26 15 19 15 19 10 0 -5 -15 -4 -16 7 -8 10
8 20 6 42 -8 17 -11 25 -20 20 -20 -6 0 -17 6 -25 13 -12 10 -12 9 -1 -5 8
-11 27 -18 45 -18 17 0 26 4 21 8 -6 4 -12 18 -12 31 -2 18 2 22 18 18 13 -4
19 0 19 11 0 14 1 14 13 -1 8 -12 16 -14 27 -7 8 5 11 10 5 10 -5 0 -3 5 5 10
10 6 11 10 3 10 -7 0 -13 8 -13 18 0 14 -2 15 -10 2 -6 -10 -10 -11 -10 -2 0
6 -7 12 -16 12 -8 0 -12 5 -8 11 4 7 0 9 -14 5 -13 -4 -22 -1 -26 9 -3 9 -10
13 -16 10 -6 -3 -13 1 -16 9 -3 9 -13 16 -21 16 -10 0 -14 7 -10 20 3 11 1 20
-4 20 -5 0 -9 -4 -9 -8 0 -4 -9 -8 -20 -9 -11 -1 -18 2 -16 6 3 4 -1 8 -9 8
-8 0 -11 -5 -8 -11 3 -6 3 -8 -2 -4 -4 4 -15 2 -23 -5 -13 -10 -14 -9 -4 10 8
14 9 24 2 28 -5 3 -10 3 -10 -2 0 -4 -5 -1 -10 7 -9 13 -10 13 -10 0 0 -13 -1
-13 -10 0 -7 11 -10 11 -10 2 0 -10 -5 -10 -20 -2 -15 8 -20 8 -18 -1 4 -16
-30 -20 -36 -4 -3 10 1 12 12 9 14 -5 14 -3 -1 6 -25 16 -67 20 -64 6 1 -6 -6
-10 -15 -10 -10 1 -18 -2 -18 -7 0 -5 -4 -8 -9 -7 -5 2 -17 -6 -26 -17 -9 -11
-13 -13 -9 -5 7 13 6 13 -12 0 -10 -8 -22 -19 -26 -25 -4 -5 -8 3 -8 19 0 23
-3 26 -13 17 -8 -6 -18 -7 -23 -3 -4 4 -2 -1 5 -11 12 -15 12 -17 -3 -11 -11
4 -16 1 -16 -11 0 -10 -5 -13 -12 -9 -8 5 -9 2 -5 -10 4 -9 3 -15 -2 -12 -13
9 -34 -21 -25 -36 4 -7 4 -10 -1 -6 -4 4 -15 0 -24 -9 -15 -15 -16 -15 -19 0
-2 9 -7 17 -12 17 -4 0 -11 7 -14 16 -3 8 -2 12 4 9 6 -3 10 -2 10 3 0 6 -7
12 -15 16 -8 3 -15 16 -15 30 0 13 -5 26 -10 28 -6 2 -12 14 -15 28 -4 18 4
32 30 57 19 18 35 31 35 28 0 -3 6 0 14 7 8 7 12 16 10 19 -6 11 24 31 36 24
6 -4 9 -1 8 7 -2 7 3 12 9 11 7 -2 12 0 10 5 -1 4 2 7 6 7 5 0 15 11 22 25 8
14 14 22 15 18 0 -4 20 12 43 37 24 25 47 42 50 38 4 -3 7 1 7 10 0 10 7 17
16 17 9 0 12 5 8 12 -5 8 -2 9 12 4 10 -4 15 -4 11 0 -4 4 5 16 20 26 16 10
22 18 15 18 -7 0 -11 4 -7 10 3 5 13 6 22 3 10 -4 14 -2 10 4 -4 6 1 17 10 24
14 12 16 12 9 -1 -4 -9 -2 -8 7 2 8 10 17 15 21 11 4 -4 4 0 1 9 -4 11 0 18
14 23 12 4 18 11 15 17 -5 8 -1 9 12 4 10 -4 16 -4 12 -1 -7 8 32 50 47 50 6
1 9 7 7 14 -2 8 3 11 12 8 9 -4 15 -3 15 1 -3 18 2 33 9 29 4 -3 16 5 27 16
11 11 14 16 6 12 -9 -5 -12 -4 -7 3 4 6 13 9 20 6 8 -3 17 0 22 7 5 8 3 10 -7
4 -8 -4 -5 1 6 12 11 12 22 20 25 20 3 -1 19 11 35 27 17 16 24 26 16 21 -9
-5 -12 -4 -7 3 4 6 13 9 21 5 8 -3 15 0 15 7 0 15 26 41 34 33 3 -4 6 5 6 18
0 17 3 20 9 11 6 -11 13 -8 28 12 11 14 23 22 27 19 3 -3 6 -1 6 5 0 15 56 72
64 65 3 -4 6 -1 6 6 0 7 5 9 12 5 6 -4 8 -3 5 3 -8 13 80 96 93 88 6 -4 10 -3
9 2 -4 22 3 32 31 41 22 8 28 15 23 28 -4 12 -3 15 5 10 7 -4 15 0 18 9 4 9
12 14 20 11 8 -3 11 2 9 13 -2 12 2 18 13 17 10 0 16 5 14 13 -2 8 3 11 12 8
11 -4 18 1 22 18 3 14 10 23 15 20 4 -3 13 4 19 15 6 11 15 18 20 15 4 -3 7
15 5 40 -1 25 1 48 7 51 5 3 5 11 0 17 -10 14 -10 57 0 73 4 6 1 11 -7 11 -8
0 -15 -4 -15 -9 0 -4 -3 -7 -7 -7 -20 3 -34 -2 -28 -11 3 -5 1 -10 -5 -10 -6
0 -8 -5 -4 -12 4 -6 3 -8 -4 -4 -6 3 -13 2 -17 -4 -4 -6 -11 -8 -16 -4 -5 3
-8 0 -7 -8 2 -7 -5 -12 -14 -12 -10 1 -14 -4 -11 -12 3 -8 0 -14 -7 -14 -6 0
-8 -6 -4 -12 4 -7 4 -10 -1 -6 -12 11 -47 -12 -41 -27 3 -9 0 -12 -8 -9 -7 3
-16 -2 -20 -11 -3 -9 -10 -13 -16 -10 -6 3 -10 -4 -10 -16 0 -18 -3 -19 -15
-9 -12 10 -14 8 -10 -8 2 -13 -2 -19 -13 -18 -9 0 -16 -5 -14 -11 2 -12 -11
-17 -31 -14 -5 1 -6 -3 -3 -8 4 -5 -3 -16 -14 -24 -11 -7 -17 -18 -12 -23 4
-4 -2 -2 -12 6 -13 10 -17 10 -12 2 4 -7 1 -15 -8 -18 -9 -3 -16 -13 -16 -21
0 -8 -4 -11 -10 -8 -5 3 -10 -1 -10 -11 0 -14 -3 -14 -15 -4 -13 11 -14 10
-10 -3 4 -10 -1 -17 -14 -22 -12 -3 -19 -10 -16 -15 7 -12 -36 -41 -49 -33 -6
4 -4 -2 4 -12 9 -11 10 -16 3 -11 -8 4 -22 -3 -36 -18 -13 -14 -27 -23 -30
-20 -3 3 -8 -4 -12 -15 -4 -14 -11 -18 -23 -14 -15 6 -15 5 -3 -10 12 -15 12
-17 -3 -11 -10 4 -18 0 -22 -10 -3 -9 -12 -16 -20 -16 -8 0 -13 -3 -11 -8 1
-4 -9 -19 -23 -32 -14 -14 -22 -21 -17 -16 4 6 7 14 7 20 0 5 -12 -6 -26 -25
-14 -19 -30 -33 -35 -31 -6 1 -8 -2 -5 -7 8 -12 -21 -34 -34 -26 -6 4 -9 1 -8
-7 2 -7 -3 -12 -10 -10 -8 1 -11 -2 -7 -8 3 -5 1 -10 -5 -10 -6 0 -8 -4 -5
-10 3 -5 -6 -12 -20 -16 -14 -3 -24 -9 -21 -12 9 -8 -47 -51 -58 -45 -6 3 -8
3 -5 -1 8 -8 -53 -76 -69 -76 -7 0 -11 -6 -9 -12 1 -7 -6 -12 -16 -11 -10 0
-16 -1 -13 -4 7 -7 -27 -43 -42 -43 -7 0 -11 -4 -7 -9 3 -5 -4 -12 -15 -16
-11 -4 -18 -10 -15 -15 3 -5 -4 -11 -15 -15 -11 -4 -18 -11 -15 -16 4 -5 0 -9
-8 -9 -8 0 -19 -10 -26 -22 -9 -19 -11 -19 -6 -3 5 19 4 19 -8 3 -8 -10 -17
-15 -21 -11 -4 4 -4 0 0 -10 4 -12 1 -17 -11 -17 -11 0 -15 -5 -11 -16 3 -9 2
-12 -5 -9 -5 4 -25 -9 -44 -29 -18 -20 -39 -36 -45 -36 -6 0 -8 -5 -4 -12 5
-8 2 -9 -10 -5 -9 4 -15 3 -12 -2 3 -5 -1 -12 -10 -15 -8 -3 -13 -9 -10 -14 2
-4 -4 -8 -14 -8 -11 0 -22 13 -29 33 -7 18 -16 31 -21 28 -10 -6 -22 24 -14
36 3 5 2 9 -3 8 -20 -3 -33 2 -30 12 1 6 -4 14 -12 17 -9 3 -11 0 -7 -9 4 -8
0 -5 -8 5 -18 22 -21 14 -6 -14 8 -15 6 -18 -8 -15 -9 2 -21 4 -26 4 -4 1 -5
8 -2 17 3 8 2 13 -3 9 -5 -3 -12 1 -14 7 -4 10 -6 9 -6 -1 -1 -10 -7 -8 -19 7
-26 30 -69 45 -76 27 -3 -9 0 -12 8 -9 8 3 17 1 21 -5 4 -7 0 -8 -11 -4 -11 4
-15 3 -10 -5 3 -6 1 -14 -5 -18 -8 -4 -9 -3 -5 4 5 8 -2 12 -19 12 -14 0 -24
4 -21 9 8 12 -12 18 -46 16 -16 -1 -28 2 -28 7 0 5 -4 7 -9 4 -5 -3 -14 1 -21
9 -7 8 -16 13 -20 10 -13 -8 -40 6 -33 18 3 5 2 8 -3 5 -9 -5 -45 27 -38 34 2
3 -3 5 -11 5 -8 0 -11 -5 -8 -11 3 -6 -4 -1 -16 12 -24 24 -36 29 -26 10 4 -7
1 -6 -7 3 -7 9 -18 14 -25 12 -6 -2 -15 1 -19 8 -5 8 -3 9 6 4 8 -5 11 -4 7 2
-4 6 -18 8 -32 6 -17 -4 -27 0 -31 11 -6 15 -8 15 -20 -1 -11 -14 -14 -14 -12
-3 2 10 -4 14 -16 12 -12 -2 -16 1 -10 9 5 9 2 10 -11 6 -9 -4 -25 -2 -33 5
-13 11 -14 11 -7 -2 7 -12 6 -13 -7 -3 -8 7 -18 10 -21 6 -4 -3 -7 -1 -7 6 0
8 -6 11 -16 7 -10 -4 -14 -1 -11 6 2 7 11 12 20 12 9 -1 13 4 10 12 -3 9 0 13
8 11 8 -2 11 -2 6 0 -4 3 -5 9 -1 14 3 5 2 9 -3 8 -20 -3 -34 2 -28 11 4 6 3
9 -2 8 -18 -5 -53 14 -47 25 5 9 3 9 -6 0 -11 -10 -16 -9 -27 5 -8 9 -11 11
-8 4 5 -10 -3 -8 -26 4 -19 10 -40 17 -47 15 -10 -2 -10 2 0 19 13 20 13 20
31 -5 19 -26 37 -33 37 -14 0 5 -4 8 -9 4 -5 -3 -12 -1 -16 5 -3 5 1 10 9 10
23 0 31 -4 28 -14 -2 -5 4 -6 13 -3 8 4 15 2 15 -4 0 -6 5 -7 10 -4 6 3 10 -1
10 -10 0 -9 5 -13 10 -10 6 4 7 12 3 18 -4 7 1 5 11 -3 10 -8 25 -15 34 -16 8
-2 18 -7 21 -12 3 -5 20 -11 37 -14 29 -4 32 -2 28 20 -4 17 -1 22 8 16 11 -6
11 -5 0 8 -10 13 -9 18 5 29 12 11 17 11 20 2 4 -10 10 -10 25 -2 15 8 19 8
14 0 -4 -6 0 -11 8 -11 9 0 16 -5 16 -11 0 -5 4 -8 9 -5 5 4 11 1 13 -4 3 -10
22 -17 53 -19 6 -1 3 -6 -5 -11 -12 -8 -10 -10 11 -10 14 0 34 -8 45 -17 10
-10 26 -19 36 -21 13 -2 15 4 11 29 -3 19 -1 29 5 25 6 -4 8 3 4 16 -5 20 -3
21 10 11 8 -7 18 -10 21 -6 4 3 7 -2 7 -13 0 -14 2 -16 9 -6 7 11 9 11 14 -2
4 -9 13 -16 22 -16 8 0 15 -5 15 -11 0 -5 5 -7 10 -4 6 3 10 -1 10 -9 0 -8 5
-18 12 -22 7 -5 9 -2 4 7 -4 8 -1 6 7 -3 8 -10 20 -18 26 -18 7 0 9 -4 6 -10
-3 -5 1 -10 9 -10 9 0 16 -4 16 -9 0 -5 6 -11 14 -14 11 -4 13 0 11 15 -3 12
-8 24 -12 27 -5 3 -8 19 -8 36 0 33 21 41 43 15 8 -8 11 -9 7 -3 -4 9 -1 11 9
7 9 -3 14 -10 11 -14 -3 -4 3 -14 12 -21 14 -12 16 -12 9 1 -4 9 -1 8 7 -2 8
-10 20 -18 26 -18 7 0 9 -4 6 -10 -3 -5 1 -10 9 -10 8 0 17 -8 20 -18 8 -23
56 -25 53 -2 -1 8 -6 21 -10 28 -5 7 -3 12 4 12 8 0 7 6 -4 18 -14 16 -13 17
19 19 19 1 34 -3 34 -8 0 -6 -5 -7 -12 -3 -6 4 -8 3 -5 -4 4 -5 15 -9 25 -8 9
2 20 -1 23 -6 3 -5 16 -10 27 -11 12 -1 22 -7 22 -14 0 -7 7 -10 17 -6 10 4
14 2 10 -4 -3 -5 1 -10 9 -10 9 0 13 6 10 14 -3 8 -1 11 4 8 6 -3 10 -1 10 4
0 6 -7 11 -16 11 -9 0 -14 5 -12 12 2 6 -8 24 -24 38 -15 15 -28 32 -28 39 0
6 -9 11 -21 11 -11 0 -17 4 -14 10 3 5 -12 27 -34 48 l-40 39 38 -1 c30 -1 38
2 36 14 -2 8 -4 18 -4 23 -1 4 -8 7 -16 7 -8 0 -15 6 -15 13 0 8 -4 7 -10 -3
-5 -8 -10 -10 -10 -4 0 20 -70 36 -82 19 -5 -6 -8 -3 -8 7 0 12 -6 15 -22 10
-15 -4 -19 -2 -13 7 6 10 3 11 -14 2 -12 -7 -21 -8 -21 -2 0 5 -8 8 -17 6 -10
-1 -24 2 -31 8 -9 7 -11 5 -5 -9 6 -17 5 -17 -10 -5 -9 7 -24 11 -32 7 -8 -3
-15 -1 -15 4 0 6 -5 10 -11 10 -5 0 -7 -4 -4 -10 3 -6 -1 -7 -9 -4 -9 3 -13
11 -9 18 5 8 3 8 -8 0 -10 -8 -20 -8 -35 0 -20 11 -22 36 -3 36 6 0 7 -5 3
-12 -4 -7 -3 -8 5 -4 9 6 9 11 -1 23 -7 9 -12 18 -10 20 1 1 2 6 2 11 0 4 -5
0 -10 -8 -8 -13 -10 -13 -10 -1 0 11 -4 10 -16 -5 -8 -10 -13 -14 -10 -9 2 6
-4 17 -16 24 -11 7 -17 8 -14 2 4 -5 2 -12 -4 -16 -6 -4 -7 -12 -3 -18 4 -7 0
-6 -10 2 -13 10 -17 10 -17 1 0 -10 -3 -10 -15 0 -12 10 -15 10 -15 0 0 -7 -7
-10 -15 -6 -8 3 -18 -2 -23 -11 -6 -10 -12 -12 -16 -5 -4 6 -13 9 -21 6 -8 -4
-12 -10 -9 -15 3 -5 1 -9 -4 -9 -6 0 -12 7 -16 15 -3 8 -1 15 5 15 6 0 8 4 5
9 -4 5 0 12 6 14 10 4 10 6 0 6 -7 1 -10 6 -6 13 5 7 3 8 -7 3 -21 -13 -53
-14 -61 -1 -6 8 -10 8 -15 0 -5 -6 -25 -10 -45 -10 -21 1 -38 -2 -38 -7 0 -4
-4 -5 -10 -2 -5 3 -10 1 -10 -5 0 -7 -7 -10 -15 -6 -8 3 -15 0 -15 -6 0 -7 -5
-6 -15 2 -13 11 -14 10 -10 -1 4 -10 -2 -15 -17 -16 -13 -1 -24 -7 -26 -13 -3
-8 -8 -7 -18 1 -8 6 -11 16 -7 21 3 6 0 8 -8 6 -8 -3 -23 -1 -33 5 -16 8 -18
6 -12 -8 5 -15 4 -16 -9 -5 -8 7 -15 9 -15 5 0 -4 -7 -2 -15 5 -13 11 -14 10
-9 -5 6 -15 3 -17 -19 -13 -15 3 -27 1 -27 -4 0 -5 -9 -4 -20 2 -16 9 -18 8
-14 -5 6 -15 3 -16 -48 -20 -33 -2 -34 -1 -8 25 11 11 20 16 20 10 0 -5 5 -10
11 -10 5 0 7 5 4 10 -3 6 3 10 15 10 11 0 23 6 26 14 3 8 13 12 25 9 11 -3 19
0 19 6 0 7 4 10 9 7 5 -3 11 1 15 9 4 12 11 13 32 5 24 -10 26 -9 14 6 -12 13
-12 15 1 14 28 -4 50 0 45 9 -3 5 1 12 10 15 10 4 13 2 8 -7 -6 -9 -5 -9 7 0
9 8 19 9 25 4 5 -6 23 3 44 21 19 17 30 28 24 24 -7 -3 -14 1 -18 9 -5 14 11
21 38 16 5 -1 6 5 3 13 -4 10 -1 13 8 9 8 -3 13 -8 11 -12 -3 -4 4 -7 14 -7
12 0 16 4 10 11 -5 7 2 10 23 10 18 0 35 -4 39 -10 5 -6 8 -5 8 3 0 6 5 12 11
12 5 0 8 -4 5 -8 -2 -4 4 -8 15 -8 10 0 19 5 19 11 0 5 7 1 15 -9 8 -11 15
-14 15 -8 0 7 5 12 11 12 5 0 7 -6 3 -12 -5 -9 -2 -9 9 1 16 13 22 8 17 -14
-1 -7 2 -6 9 0 12 12 3 57 -10 49 -5 -3 -6 2 -3 10 3 9 10 13 15 10 5 -3 9 -2
9 3 0 4 11 8 24 8 13 0 22 -4 18 -9 -3 -5 2 -7 11 -3 12 4 14 2 10 -10 -5 -13
-3 -14 15 -4 11 6 23 7 26 2 3 -4 19 -11 36 -15 22 -4 29 -10 24 -18 -6 -9 -3
-9 9 1 12 9 17 10 17 2 0 -7 5 -9 10 -6 6 3 10 2 10 -2 0 -5 9 -9 20 -10 25
-2 27 14 3 20 -17 4 -17 5 0 6 9 0 17 6 17 12 0 5 -5 7 -12 3 -6 -4 -8 -3 -4
4 7 12 54 6 72 -9 6 -5 14 -6 17 -2 4 3 7 1 7 -5 0 -7 9 -12 20 -12 11 0 20
-5 20 -12 0 -6 3 -8 7 -5 3 4 12 -1 20 -11 8 -9 12 -11 8 -4 -3 6 -1 12 4 12
6 0 11 -3 11 -8 0 -4 9 -13 21 -20 14 -9 19 -10 14 -2 -4 7 4 5 18 -4 28 -19
38 -8 33 37 -2 18 1 24 10 20 8 -3 14 -10 14 -15 0 -6 7 -8 15 -4 10 3 15 -1
15 -11 0 -15 2 -15 13 2 13 17 14 17 29 -4 11 -16 17 -19 21 -9 4 9 6 9 6 1 1
-7 8 -10 18 -6 12 5 14 3 8 -8 -4 -8 -5 -11 0 -7 4 4 16 3 25 -2 13 -7 22 -5
31 7 13 15 11 16 -16 9 -26 -6 -28 -6 -13 6 15 11 15 15 2 26 -11 10 -14 10
-14 0 -1 -7 -6 -3 -13 10 -7 12 -16 19 -20 16 -4 -4 -7 0 -7 8 0 11 -6 14 -20
11 -14 -4 -20 0 -20 11 0 9 -8 16 -18 16 -11 0 -27 9 -37 20 -10 12 -25 18
-32 16 -7 -3 -13 2 -13 10 0 12 -7 15 -25 12 -14 -3 -28 -1 -32 5 -4 6 -1 7 7
2 9 -5 11 -4 6 3 -4 7 -16 12 -26 12 -10 0 -24 8 -29 18 -6 9 -11 13 -11 9 0
-4 -9 -3 -20 3 -11 6 -18 15 -15 20 3 5 0 12 -6 16 -7 4 -9 3 -5 -4 3 -6 1
-14 -5 -18 -8 -4 -9 -3 -5 4 4 7 1 12 -6 12 -11 0 -11 2 0 9 8 4 24 7 36 6 13
-2 23 3 23 10 0 8 -10 12 -24 10 -12 -1 -23 3 -23 9 0 6 -5 4 -10 -4 -8 -12
-10 -12 -11 5 0 11 -3 14 -6 8 -2 -7 -9 -13 -14 -13 -6 0 -7 6 -3 13 5 8 2 8
-9 -2 -9 -7 -17 -9 -17 -4 0 5 -7 10 -15 10 -8 0 -15 -3 -15 -6 0 -4 -13 -7
-30 -7 -16 -1 -30 2 -30 6 0 3 -7 7 -15 7 -8 0 -12 -4 -9 -9 3 -4 0 -8 -5 -8
-6 0 -11 5 -11 11 0 8 -5 8 -15 -1 -9 -7 -15 -8 -15 -2 0 5 -8 9 -17 8 -10 0
-18 6 -18 14 0 8 6 14 13 13 6 -2 12 6 12 18 0 13 4 18 12 13 7 -5 8 -3 3 6
-6 10 -10 10 -20 -3 -10 -14 -12 -14 -23 1 -7 9 -10 11 -7 5 3 -7 1 -14 -4
-14 -11 -2 -26 -5 -38 -9 -5 -1 -16 -1 -26 0 -10 1 -24 -4 -32 -10 -8 -7 -19
-9 -25 -5 -5 3 -10 2 -10 -4 0 -6 -7 -8 -15 -5 -9 4 -15 0 -15 -7 0 -11 -3
-11 -10 1 -6 10 -10 11 -10 3 0 -7 -9 -13 -20 -13 -11 0 -20 5 -20 10 0 6 5
10 11 10 6 0 8 7 5 16 -3 8 -2 13 3 10 5 -3 11 1 15 9 8 23 -6 24 -42 4z
m-1231 -86 c13 -16 12 -17 -3 -4 -10 7 -18 15 -18 17 0 8 8 3 21 -13z m1089
-307 c0 -3 -4 -8 -10 -11 -5 -3 -10 -1 -10 4 0 6 5 11 10 11 6 0 10 -2 10 -4z
m-683 -105 c0 -11 -5 -18 -9 -15 -4 3 -5 11 -1 19 7 21 12 19 10 -4z m38 -2
c-4 -5 -12 -9 -18 -8 -9 0 -8 2 1 6 6 2 9 10 6 15 -4 7 -2 8 5 4 6 -4 9 -12 6
-17z m38 -2 c7 3 8 2 4 -2 -14 -16 -36 -14 -29 3 4 10 7 12 10 4 2 -7 9 -9 15
-5z m534 -43 c-9 -9 -28 6 -21 18 4 6 10 6 17 -1 6 -6 8 -13 4 -17z m-181
-160 c1 -9 0 -13 -4 -10 -3 4 -7 14 -8 22 -1 9 0 13 4 10 3 -4 7 -14 8 -22z
m85 -11 c7 -7 5 -12 -6 -17 -11 -4 -14 -2 -9 6 5 8 2 9 -9 5 -10 -4 -17 -1
-17 6 0 9 -3 8 -9 -1 -7 -11 -9 -11 -14 0 -6 17 47 18 64 1z m-631 -57 c0 -2
-8 -10 -17 -17 -16 -13 -17 -12 -4 4 13 16 21 21 21 13z m506 -111 c3 -20 24
-36 36 -29 4 3 5 -2 2 -10 -4 -9 1 -18 10 -22 9 -3 13 -10 10 -15 -3 -5 2 -12
10 -15 9 -3 14 -10 11 -14 -3 -4 2 -10 10 -14 8 -3 15 -13 15 -21 0 -9 5 -13
10 -10 8 5 15 -21 12 -46 -1 -4 6 -6 16 -5 9 0 17 -6 17 -14 1 -8 6 -14 13
-13 6 2 9 -4 6 -12 -4 -9 0 -15 10 -15 9 0 16 -4 16 -10 0 -5 4 -10 8 -10 5 0
8 21 8 46 -1 35 3 48 18 56 14 8 17 7 11 -3 -6 -9 -3 -11 9 -6 10 4 15 3 11
-3 -3 -6 -1 -10 4 -10 6 0 11 -7 11 -15 0 -8 5 -15 11 -15 6 0 8 -7 5 -16 -5
-13 -4 -14 7 -6 11 9 13 7 13 -11 -1 -13 4 -21 12 -19 6 1 11 -1 11 -5 -4 -25
2 -43 13 -37 7 5 9 2 5 -9 -3 -8 1 -21 9 -28 8 -7 13 -18 10 -26 -3 -7 -1 -13
5 -13 6 0 8 -7 5 -16 -3 -8 -2 -12 4 -9 6 3 10 -3 10 -14 0 -10 5 -21 10 -23
6 -2 12 -13 13 -26 1 -23 12 -29 22 -12 3 6 1 10 -6 10 -7 0 -4 7 7 16 18 15
18 15 0 10 -16 -5 -17 -4 -7 8 7 8 9 21 5 27 -5 8 -3 9 6 4 9 -6 12 -4 8 7 -4
9 0 15 8 15 8 0 14 -6 14 -14 0 -7 6 -13 13 -13 8 0 7 -4 -3 -10 -12 -8 -12
-10 -1 -10 10 0 11 -3 2 -14 -9 -11 -9 -15 1 -20 7 -3 1 -4 -15 -1 -15 3 -27
2 -26 -2 1 -5 0 -11 -1 -15 -4 -14 -7 -28 -9 -40 -1 -10 -3 -10 -10 0 -7 11
-9 10 -15 -3 -3 -9 -10 -13 -16 -10 -5 3 -10 2 -10 -4 0 -6 -7 -7 -17 -4 -11
4 -14 3 -9 -5 4 -7 2 -12 -4 -12 -6 0 -8 -4 -5 -10 4 -6 -1 -7 -11 -3 -11 4
-15 2 -11 -4 4 -6 -2 -13 -13 -16 -11 -3 -20 0 -20 6 0 6 -2 8 -5 5 -3 -3 -3
-12 0 -20 6 -15 99 -18 113 -3 4 5 1 5 -7 0 -10 -6 -12 -4 -7 4 6 9 12 8 26
-6 9 -10 13 -19 9 -21 -5 -2 -9 -11 -9 -19 0 -10 -6 -13 -17 -9 -17 6 -17 5
-1 -7 10 -8 17 -16 15 -18 -1 -2 3 1 9 8 6 7 14 10 17 6 4 -3 7 -1 7 5 0 6 9
9 20 7 12 -2 23 2 27 11 4 12 8 12 21 2 13 -11 15 -11 8 2 -4 9 -2 8 7 -2 8
-10 18 -14 22 -10 4 4 3 -3 -4 -15 -12 -24 -15 -40 -4 -30 3 4 13 1 21 -6 13
-9 14 -9 8 1 -4 7 -1 12 9 12 9 0 13 4 10 10 -3 5 0 7 9 4 9 -3 12 -12 9 -21
-4 -10 -2 -14 4 -10 5 3 10 0 10 -8 0 -8 -4 -12 -8 -9 -4 2 -10 0 -14 -6 -3
-5 2 -10 12 -10 15 0 16 -2 3 -10 -10 -6 -11 -10 -2 -10 6 0 12 -5 12 -11 0
-5 -4 -7 -10 -4 -6 3 -7 -1 -4 -9 3 -9 11 -13 17 -9 6 4 7 1 1 -8 -11 -18 -14
-39 -6 -39 15 0 4 -63 -12 -72 -9 -5 -14 -13 -11 -17 2 -5 -3 -8 -13 -7 -9 0
-17 -3 -17 -9 0 -5 4 -9 8 -7 5 1 5 -2 2 -8 -4 -6 -13 -9 -21 -6 -7 3 -16 0
-20 -6 -4 -6 -3 -8 4 -4 6 3 13 2 17 -4 4 -6 11 -8 16 -5 5 4 9 1 9 -4 0 -6
-7 -11 -15 -11 -8 0 -15 -6 -15 -14 0 -8 -5 -18 -12 -22 -7 -5 -8 -3 -3 6 5 9
4 11 -3 6 -7 -4 -12 -14 -12 -22 0 -8 -4 -12 -10 -9 -5 3 -10 -1 -10 -9 0 -9
-4 -16 -10 -16 -5 0 -10 -7 -10 -15 0 -8 -5 -15 -11 -15 -5 0 -7 5 -3 12 4 7
3 8 -5 4 -7 -4 -10 -13 -8 -19 2 -7 -2 -20 -11 -29 -10 -12 -11 -18 -4 -18 7
0 12 5 12 11 0 5 5 7 11 3 8 -5 8 -8 0 -14 -7 -4 -11 -11 -9 -16 4 -13 -27
-55 -35 -48 -4 4 -4 -3 -2 -15 2 -12 1 -20 -3 -17 -4 2 -13 -2 -20 -10 -10
-11 -10 -14 0 -15 10 0 10 -2 0 -6 -20 -8 -34 -41 -20 -49 7 -4 8 -3 4 4 -5 8
0 12 13 12 10 0 22 6 25 13 3 6 3 1 0 -12 -4 -15 -2 -21 4 -17 18 11 6 -24
-14 -40 -10 -8 -13 -13 -6 -9 6 3 12 2 12 -4 0 -5 -5 -11 -12 -13 -6 -2 -12
-20 -13 -40 0 -20 3 -34 7 -32 5 3 6 9 3 14 -3 5 0 12 7 16 7 4 10 4 6 -1 -4
-4 -3 -16 2 -26 7 -13 6 -22 -6 -33 -12 -12 -12 -16 -2 -17 10 0 10 -2 1 -6
-7 -2 -13 -18 -13 -35 0 -27 -2 -29 -16 -17 -11 9 -12 15 -5 17 8 3 6 9 -6 19
-10 8 -12 11 -5 8 10 -5 10 0 -1 27 -8 18 -13 42 -11 53 2 10 -3 26 -9 34 -8
10 -8 13 -1 8 8 -4 11 3 10 23 0 17 -5 30 -11 30 -5 0 -3 5 5 10 13 8 13 10 1
10 -12 0 -12 3 -3 12 7 7 12 17 12 23 0 5 -5 3 -10 -5 -10 -16 -10 -15 -14 33
-1 6 -5 15 -11 19 -6 5 -4 8 4 8 9 0 7 7 -8 19 -30 26 -30 28 -4 46 22 15 22
17 7 40 -15 23 -15 25 2 25 18 1 18 1 2 11 -10 5 -18 15 -18 20 0 6 4 7 10 4
6 -3 7 1 4 9 -3 9 -10 16 -14 16 -5 0 -7 11 -6 24 2 17 -1 23 -10 19 -8 -3
-14 0 -14 6 0 6 6 11 13 12 10 0 10 2 0 6 -7 2 -13 11 -13 19 0 8 -5 14 -11
14 -5 0 -7 5 -4 10 4 6 10 8 15 5 4 -3 6 5 2 17 -4 16 -2 19 9 13 12 -8 12 -6
0 8 -7 9 -10 17 -6 17 4 0 0 11 -9 25 -9 14 -14 30 -11 35 3 5 -4 15 -16 23
-15 11 -17 16 -7 20 9 4 8 6 -3 6 -20 1 -32 28 -17 37 7 5 8 2 3 -6 -5 -8 -4
-11 2 -7 13 8 10 71 -5 89 -6 8 -9 18 -5 21 3 4 2 7 -4 7 -6 0 -14 11 -17 25
-4 14 -10 24 -14 21 -4 -2 -7 18 -7 45 0 27 -3 49 -8 49 -5 0 -4 7 3 15 10 12
9 16 -4 21 -10 4 -15 13 -12 20 3 7 -6 22 -20 33 -15 12 -23 25 -18 32 4 8 3
9 -4 5 -8 -5 -12 0 -12 13 0 11 8 25 18 30 16 10 16 10 -2 11 -13 0 -17 5 -13
19 3 12 -1 22 -11 26 -8 3 -12 8 -9 12 4 3 2 12 -4 20 -6 7 -8 13 -3 13 4 0
-1 7 -12 15 -10 8 -13 15 -7 15 9 0 10 7 3 25 -5 14 -6 25 -2 25 4 0 0 5 -8
10 -8 5 -10 10 -4 10 6 0 11 7 11 15 0 10 -4 12 -12 5 -9 -8 -12 -3 -9 21 3
25 1 30 -12 25 -8 -3 -12 -2 -9 4 3 5 -5 22 -19 37 -14 15 -23 30 -20 35 3 4
0 8 -5 8 -6 0 -11 4 -11 9 0 17 33 4 36 -14z m637 -169 c-4 -5 1 -7 11 -3 9 4
14 3 11 -2 -3 -5 4 -12 15 -16 28 -9 25 -21 -5 -21 -14 0 -25 5 -25 11 0 5 -5
3 -10 -5 -8 -13 -12 -12 -29 6 -12 13 -16 25 -10 31 12 12 49 11 42 -1z m76
-19 c0 -9 -2 -9 -5 0 -3 7 -13 9 -22 6 -14 -4 -14 -3 -2 5 16 12 30 7 29 -11z
m116 -169 c15 2 25 0 25 -7 0 -6 7 -11 15 -11 8 0 15 -5 15 -11 0 -5 -4 -8 -8
-5 -5 3 -9 -1 -9 -9 0 -8 4 -12 9 -9 4 3 8 0 8 -5 0 -6 5 -11 11 -11 5 0 7 4
4 10 -3 6 1 7 9 4 9 -3 16 -11 16 -16 0 -6 8 -4 17 3 14 12 16 12 8 0 -6 -11
-4 -13 8 -8 11 4 14 2 10 -9 -3 -7 0 -14 6 -14 6 0 11 6 12 13 0 10 2 10 6 0
2 -7 14 -13 24 -13 11 0 17 -4 14 -10 -3 -5 -2 -10 4 -10 5 0 11 -10 13 -22 2
-13 9 -22 15 -21 7 2 10 -6 8 -18 -3 -17 -2 -19 10 -9 11 10 15 7 21 -15 3
-14 9 -24 12 -21 3 3 13 -4 23 -15 10 -12 23 -18 28 -14 7 4 8 0 4 -11 -4 -12
-3 -15 5 -10 7 4 12 2 12 -3 0 -6 5 -10 11 -8 6 1 13 -5 14 -14 2 -11 -3 -16
-14 -14 -9 1 -15 8 -13 15 2 8 -3 10 -13 6 -9 -3 -14 -2 -11 3 7 11 -22 23
-36 14 -6 -3 -8 -1 -5 4 7 11 -21 28 -38 23 -35 -10 -56 -7 -51 6 3 9 -4 16
-20 20 -14 4 -23 9 -20 11 9 9 -18 31 -31 26 -7 -3 -13 0 -13 7 0 6 -4 8 -10
5 -5 -3 -10 0 -10 7 0 9 -3 9 -10 -2 -5 -8 -10 -10 -10 -5 0 6 -9 11 -21 12
-18 2 -20 -2 -16 -25 5 -25 4 -26 -9 -7 -8 11 -18 19 -22 19 -4 -1 -6 2 -4 7
1 5 -1 8 -5 8 -23 -4 -43 2 -38 11 3 6 -1 10 -9 10 -9 0 -16 7 -16 16 0 8 -4
12 -10 9 -5 -3 -10 -1 -10 5 0 6 -5 8 -12 4 -8 -5 -8 -2 1 10 8 9 10 16 5 15
-20 -3 -35 1 -29 10 3 5 -2 17 -11 25 -9 9 -11 16 -4 16 6 0 8 5 4 11 -5 8 -1
8 14 0 11 -6 33 -16 49 -22 23 -8 26 -8 16 2 -18 18 -16 42 2 35 8 -3 15 0 16
7 0 8 2 8 5 1 3 -6 16 -9 29 -6z m-1300 -128 c3 -5 2 -10 -4 -10 -5 0 -13 5
-16 10 -3 6 -2 10 4 10 5 0 13 -4 16 -10z m2235 -45 c0 -2 -10 -9 -22 -15 -22
-11 -22 -10 -4 4 21 17 26 19 26 11z m-680 -90 c-7 -9 -15 -13 -19 -10 -3 3 1
10 9 15 21 14 24 12 10 -5z m-207 -81 c4 -1 12 -2 19 -3 6 0 3 -10 -8 -23 -10
-12 -14 -18 -7 -15 6 4 16 0 21 -9 11 -19 65 -27 58 -9 -2 7 2 12 9 12 8 0 14
-3 13 -6 -2 -19 4 -20 19 -5 20 20 30 4 14 -23 -6 -10 -11 -13 -11 -7 0 14
-29 13 -55 -3 -16 -9 -17 -14 -6 -27 11 -14 8 -15 -26 -13 -21 1 -44 6 -52 11
-9 6 -12 5 -8 -1 4 -6 0 -13 -8 -16 -10 -4 -12 -1 -8 11 6 15 5 15 -10 3 -15
-12 -17 -12 -10 4 5 14 3 17 -8 13 -9 -4 -14 2 -15 16 0 11 -4 30 -8 41 -6 16
-6 17 3 5 7 -9 11 -10 11 -3 0 6 -5 15 -12 19 -8 5 -6 10 8 14 10 4 25 2 33
-4 11 -8 13 -8 7 2 -10 16 2 34 17 25 7 -4 15 -8 20 -9z m627 -29 c0 -6 -9
-11 -20 -11 -11 0 -20 5 -20 11 0 6 9 11 20 11 11 0 20 -5 20 -11z m-437 -16
c-6 -6 -9 -17 -7 -24 3 -6 -1 -12 -8 -12 -8 0 -14 8 -14 18 0 10 4 16 7 13 4
-2 10 0 14 6 3 5 9 10 13 10 3 0 1 -5 -5 -11z m37 7 c0 -2 -8 -10 -17 -17 -16
-13 -17 -12 -4 4 13 16 21 21 21 13z m297 -42 c-7 -7 24 -44 33 -39 4 3 5 -7
2 -20 -3 -20 -1 -24 12 -19 11 4 16 1 16 -11 0 -9 5 -13 10 -10 6 3 10 -1 10
-9 0 -9 -2 -16 -5 -16 -12 0 -55 45 -55 57 0 8 -9 23 -20 35 -17 19 -19 38 -3
38 4 0 4 -3 0 -6z m109 -132 c-3 -5 -16 -12 -28 -15 l-23 -6 24 20 c23 19 39
20 27 1z m-389 -10 c-9 -2 -14 -8 -11 -14 5 -7 2 -8 -6 -3 -10 6 -12 4 -6 -10
7 -18 6 -18 -13 -1 -14 13 -21 14 -27 5 -4 -7 -3 -10 4 -5 22 13 25 -18 3 -35
-13 -11 -19 -23 -15 -30 5 -9 0 -10 -16 -6 -16 4 -20 3 -12 -5 7 -7 4 -16 -9
-29 -10 -10 -19 -26 -19 -34 0 -9 -6 -12 -17 -8 -10 4 -14 2 -9 -5 3 -6 2 -13
-4 -17 -6 -4 -8 -10 -5 -15 3 -5 -7 -18 -21 -29 -15 -12 -23 -21 -19 -21 5 0
-2 -8 -13 -19 -12 -10 -19 -21 -15 -25 3 -3 1 -6 -6 -6 -7 0 -9 -5 -5 -12 5
-7 2 -9 -8 -5 -10 3 -15 0 -14 -11 0 -9 -4 -16 -11 -15 -7 2 -10 -4 -7 -12 3
-8 -8 -27 -25 -44 -18 -17 -29 -31 -27 -31 3 0 -6 -12 -19 -26 -14 -15 -21
-32 -18 -41 4 -11 2 -14 -5 -9 -7 4 -12 2 -12 -3 0 -6 5 -11 11 -11 5 0 7 -5
4 -10 -4 -6 -11 -8 -16 -4 -5 3 -9 2 -8 -3 4 -21 -2 -34 -13 -27 -8 5 -9 2 -5
-9 3 -10 3 -17 -1 -17 -5 0 -17 -7 -28 -16 -10 -8 -13 -13 -7 -9 10 5 11 0 3
-21 -6 -15 -9 -33 -6 -41 3 -8 -2 -13 -12 -13 -15 0 -15 -2 -2 -10 13 -8 12
-10 -2 -10 -10 0 -18 -5 -18 -11 0 -5 -6 -7 -12 -3 -8 5 -7 0 2 -11 9 -11 10
-16 3 -11 -12 6 -18 -5 -14 -26 0 -5 -6 -8 -14 -8 -8 0 -15 -5 -15 -11 0 -5 6
-7 13 -3 9 6 9 5 0 -8 -7 -8 -10 -18 -6 -21 3 -4 1 -7 -6 -7 -7 0 -9 -4 -6
-10 3 -5 1 -10 -5 -10 -6 0 -9 -4 -6 -9 3 -5 -1 -14 -9 -21 -12 -10 -15 -9
-15 4 0 9 -6 16 -12 16 -7 0 -5 5 5 11 18 11 14 29 -6 29 -7 0 -6 -4 3 -10 9
-6 10 -10 3 -10 -18 0 -26 19 -10 26 9 3 13 20 13 52 -1 26 2 54 6 63 4 9 4
20 0 23 -9 10 -9 40 1 47 5 3 0 8 -10 11 -17 5 -19 0 -15 -44 2 -38 0 -48 -10
-43 -7 3 -4 -1 6 -9 13 -11 15 -16 6 -16 -7 0 -10 -3 -7 -7 4 -3 1 -13 -6 -21
-10 -13 -9 -15 5 -10 17 7 20 -14 3 -29 -4 -4 -5 -3 -2 3 3 6 0 11 -8 11 -12
0 -12 -3 -2 -15 9 -12 9 -16 -1 -20 -10 -3 -10 -7 -1 -18 6 -8 7 -14 3 -14 -5
0 -9 -17 -9 -37 1 -21 -3 -44 -9 -51 -5 -7 -11 -32 -12 -55 -5 -62 -6 -66 -22
-60 -11 5 -11 7 0 14 7 5 8 9 3 9 -11 0 -13 145 -2 156 3 4 2 15 -4 25 -6 13
-6 25 1 39 6 11 8 25 5 30 -3 5 0 12 6 16 7 4 9 3 5 -4 -3 -6 -2 -13 3 -16 8
-5 8 15 1 34 -1 3 -1 10 0 15 9 42 9 55 0 55 -5 0 -10 5 -10 11 0 6 7 8 16 5
9 -3 12 -2 9 5 -4 5 -2 16 5 24 7 8 7 15 1 19 -6 4 -7 14 -4 24 6 15 5 15 -8
2 -17 -17 -22 -53 -6 -43 6 3 7 1 3 -6 -4 -6 -12 -9 -17 -5 -5 3 -7 9 -4 14 3
4 -1 10 -7 13 -9 3 -5 12 11 31 14 14 20 26 14 26 -6 0 -13 -6 -16 -12 -2 -7
-7 -10 -11 -7 -3 3 4 19 16 35 12 16 15 23 6 16 -11 -9 -18 -10 -23 -2 -3 5
-1 10 6 10 7 0 9 3 6 7 -4 3 1 12 11 20 9 8 11 12 5 8 -7 -3 -13 -1 -13 4 0 6
6 11 13 12 9 0 9 2 0 6 -10 3 -10 10 -2 25 8 15 14 17 22 9 17 -17 27 -13 27
8 0 11 7 27 16 35 10 10 11 16 4 16 -7 0 -4 8 7 18 10 9 13 13 6 8 -21 -14
-15 1 10 25 12 12 16 19 10 15 -8 -5 -11 -2 -7 7 3 10 18 14 39 13 26 -1 32 2
30 16 -2 9 3 19 11 22 8 3 14 14 12 23 -2 12 3 18 13 17 12 -1 15 4 11 19 -3
14 -1 18 6 13 7 -4 12 -1 12 7 0 7 7 14 15 14 8 0 13 -3 10 -5 -3 -3 1 -12 8
-20 9 -13 9 -14 0 -8 -7 4 -13 3 -13 -3 0 -5 5 -13 11 -17 8 -4 7 -9 -2 -15
-8 -5 -9 -9 -4 -9 6 0 17 5 25 10 11 7 11 10 2 10 -7 0 -10 5 -7 10 4 6 12 7
18 3 7 -4 6 1 -2 11 -12 14 -12 17 -1 14 8 -2 15 3 16 10 1 6 2 17 3 22 0 6 8
10 16 10 8 0 14 6 13 13 -2 6 2 11 9 10 6 -2 15 6 18 17 4 11 11 17 17 14 8
-5 9 -1 4 11 -6 16 -4 16 11 4 10 -7 15 -10 11 -5 -7 9 21 39 45 49 9 3 19 1
23 -5 4 -7 3 -8 -4 -4 -7 4 -12 1 -12 -9 0 -10 5 -14 13 -10 6 4 5 0 -4 -7
-14 -11 -14 -15 -3 -26 17 -15 25 -15 22 1 -2 6 5 11 15 11 10 -1 17 5 17 15
0 14 2 14 10 1 8 -13 10 -13 10 2 0 10 6 15 13 13 6 -3 17 5 22 17 6 14 17 22
28 20 9 -2 20 4 23 12 3 9 12 12 22 8 16 -6 15 -7 -1 -10z m-1737 -166 c0 -3
-4 -8 -10 -11 -5 -3 -10 -1 -10 4 0 6 5 11 10 11 6 0 10 -2 10 -4z m945 -96
c-3 -5 -11 -10 -16 -10 -6 0 -7 5 -4 10 3 6 11 10 16 10 6 0 7 -4 4 -10z
m1155 -405 c0 -8 -4 -15 -10 -15 -5 0 -7 7 -4 15 4 8 8 15 10 15 2 0 4 -7 4
-15z m-1345 -115 c3 -5 1 -10 -4 -10 -6 0 -11 5 -11 10 0 6 2 10 4 10 3 0 8
-4 11 -10z m2340 -570 c3 -5 1 -10 -4 -10 -6 0 -11 5 -11 10 0 6 2 10 4 10 3
0 8 -4 11 -10z m-1125 -46 c0 -8 -19 -13 -24 -6 -3 5 1 9 9 9 8 0 15 -2 15 -3z"/>
<path d="M3799 7573 c-13 -16 -12 -17 4 -4 16 13 21 21 13 21 -2 0 -10 -8 -17
-17z"/>
<path d="M3362 7344 c10 -10 20 -16 22 -13 3 3 -5 11 -17 18 -21 13 -21 12 -5
-5z"/>
<path d="M3394 7209 c-3 -6 -2 -15 3 -20 5 -5 9 -1 9 11 0 23 -2 24 -12 9z"/>
<path d="M3666 9552 c-3 -5 1 -9 9 -9 8 0 12 4 9 9 -3 4 -7 8 -9 8 -2 0 -6 -4
-9 -8z"/>
<path d="M5119 9153 c-13 -16 -12 -17 4 -4 9 7 17 15 17 17 0 8 -8 3 -21 -13z"/>
<path d="M5320 9123 c0 -7 -3 -12 -7 -12 -34 5 -61 -3 -66 -21 -3 -11 0 -20 6
-20 6 0 2 -6 -8 -14 -18 -13 -18 -13 1 -24 10 -6 14 -12 8 -12 -8 0 -9 -11 -4
-34 4 -19 5 -38 1 -42 -3 -3 5 -3 18 1 18 6 22 4 15 -6 -6 -11 -5 -12 7 -2 16
13 36 12 58 -1 10 -6 12 -5 7 2 -5 8 2 12 19 12 15 0 24 -4 20 -10 -3 -5 -2
-10 3 -10 5 0 12 10 15 22 5 19 8 20 24 7 16 -13 17 -12 4 3 -7 10 -18 15 -25
11 -7 -4 -7 -1 1 7 8 9 9 19 2 31 -7 13 -5 20 8 28 17 10 16 10 -2 11 -17 0
-17 2 -5 10 13 9 13 10 0 10 -9 0 -11 3 -5 8 6 4 11 14 11 23 1 12 -5 14 -24
11 -19 -4 -23 -2 -17 9 7 12 6 12 -7 1 -17 -14 -39 -13 -50 3 -5 6 -8 5 -8 -2z"/>
<path d="M5541 9119 c-1 -9 -8 -22 -16 -29 -16 -13 -21 -35 -6 -26 5 4 7 -3 4
-15 -5 -16 -8 -18 -15 -7 -7 9 -8 8 -4 -5 3 -10 6 -21 6 -23 0 -3 4 -3 8 0 4
2 8 -4 8 -14 0 -15 -3 -17 -15 -7 -12 10 -13 9 -3 -9 6 -12 10 -23 7 -25 -2
-2 7 -9 21 -16 13 -6 22 -7 18 -2 -7 11 47 8 63 -3 6 -5 14 -5 18 2 9 15 38
13 30 -2 -4 -7 0 -5 8 4 8 10 16 16 18 14 2 -3 3 28 2 67 -1 40 -7 73 -13 75
-5 2 -10 8 -10 13 0 6 5 7 12 3 7 -4 8 -3 4 5 -6 9 -11 9 -21 1 -10 -8 -14 -7
-18 2 -4 10 -6 10 -6 -1 -1 -11 -4 -11 -18 0 -11 10 -14 10 -9 2 4 -8 2 -13
-8 -13 -8 0 -18 5 -21 10 -5 8 -11 8 -20 0 -10 -8 -14 -7 -18 2 -4 9 -6 8 -6
-3z"/>
<path d="M5520 9111 c0 -7 -5 -9 -12 -5 -7 5 -8 3 -3 -5 5 -9 10 -10 18 -2 6
6 8 14 4 18 -4 3 -7 1 -7 -6z"/>
<path d="M2856 9082 c-3 -5 1 -9 9 -9 8 0 12 4 9 9 -3 4 -7 8 -9 8 -2 0 -6 -4
-9 -8z"/>
<path d="M5325 8840 c-5 -9 -4 -11 3 -6 7 4 12 2 12 -3 0 -15 -23 -14 -38 1
-9 9 -12 8 -13 -7 0 -19 -1 -19 -9 0 -5 11 -9 14 -9 7 -1 -7 -6 -10 -13 -6 -8
5 -9 2 -5 -9 4 -10 1 -17 -6 -17 -8 0 -6 -4 3 -10 12 -8 12 -10 1 -10 -11 0
-11 -3 -1 -15 7 -9 8 -15 2 -15 -6 0 -7 -13 -2 -35 5 -23 4 -36 -4 -39 -7 -3
-6 -5 2 -5 7 -1 10 -6 7 -12 -5 -7 3 -9 24 -6 17 3 34 1 37 -5 4 -6 9 -5 14 3
7 10 12 10 26 -2 16 -13 17 -12 10 6 -6 16 -5 18 5 8 7 -7 18 -13 24 -13 15 0
37 48 26 54 -9 6 -7 49 3 65 4 5 2 13 -4 16 -8 5 -7 11 1 21 6 8 9 17 5 21 -3
3 -6 0 -6 -7 0 -9 -5 -7 -15 6 -10 13 -14 14 -15 5 0 -11 -3 -11 -15 -1 -13
11 -15 10 -9 -6 5 -15 2 -14 -14 5 -14 18 -21 21 -27 11z"/>
<path d="M5536 8835 c-11 -8 -16 -15 -12 -15 4 0 0 -10 -8 -21 -14 -20 -12
-54 3 -44 4 2 8 -2 8 -10 0 -8 -4 -12 -8 -10 -4 3 -10 -2 -13 -11 -3 -8 -2
-12 4 -9 6 3 10 3 11 -2 0 -4 2 -16 4 -25 2 -10 -1 -18 -7 -18 -6 0 -5 -7 3
-16 12 -14 14 -14 26 2 7 10 13 13 13 7 0 -7 12 -10 30 -8 21 3 28 1 24 -7 -5
-7 -2 -8 6 -3 7 4 25 8 39 9 21 1 26 6 26 26 0 14 5 28 10 33 6 4 4 11 -5 17
-13 9 -13 10 0 10 13 0 13 1 0 10 -13 9 -13 10 0 10 13 0 13 1 0 10 -13 9 -13
10 0 10 12 0 12 2 1 9 -9 6 -10 11 -2 15 21 14 -1 27 -40 25 -21 -2 -41 0 -45
3 -3 4 -17 3 -31 -3 -33 -12 -37 -11 -23 6 16 19 11 19 -14 0z"/>
<path d="M3950 8680 c0 -5 9 -8 20 -7 21 1 18 10 -5 13 -8 1 -15 -2 -15 -6z"/>
<path d="M1762 8671 c-11 -7 -11 -9 0 -14 9 -3 15 1 15 9 0 8 -1 14 -1 14 -1
0 -7 -4 -14 -9z"/>
<path d="M13906 8253 c-1 -1 -32 -3 -69 -4 -55 -2 -70 -6 -78 -21 -19 -35 -2
-56 54 -68 66 -14 87 -30 96 -72 3 -18 6 -288 6 -600 -1 -521 -2 -568 -18
-586 -9 -10 -23 -19 -30 -20 -66 -6 -87 -16 -87 -41 0 -38 21 -42 243 -44 225
-2 237 0 237 42 0 22 -15 35 -45 37 -37 2 -65 15 -76 36 -6 11 -11 62 -11 114
l1 94 64 66 65 65 14 -28 c19 -36 135 -256 163 -308 11 -22 32 -57 46 -77 27
-42 3 -38 237 -40 84 -1 88 0 102 25 17 30 8 45 -31 52 -42 8 -72 39 -151 156
-63 92 -201 324 -216 361 -6 14 168 186 218 215 25 15 67 32 94 38 54 12 73
38 51 68 -11 16 -36 18 -218 19 -213 1 -237 -3 -237 -41 0 -28 14 -40 55 -45
50 -6 95 -23 95 -35 0 -6 -79 -90 -175 -187 -172 -175 -175 -177 -176 -143 0
19 0 239 -1 489 0 253 -4 462 -9 472 -8 14 -24 17 -110 15 -55 -1 -101 -3
-103 -4z"/>
<path d="M5322 8132 c-88 -3 -93 -4 -104 -28 -17 -36 0 -57 48 -61 50 -4 92
-21 104 -43 5 -10 9 -241 8 -548 l0 -531 -32 -15 c-17 -8 -51 -17 -74 -20 -24
-2 -46 -6 -48 -9 -11 -11 -11 -44 1 -60 12 -17 35 -18 272 -18 142 0 265 0
275 0 9 1 21 14 26 30 13 38 1 49 -64 56 -64 8 -113 32 -119 59 -3 11 -4 116
-3 231 l3 210 85 -1 c112 -1 134 -7 180 -52 48 -48 74 -101 140 -282 29 -80
64 -162 76 -182 40 -63 59 -70 186 -69 209 0 198 -1 207 23 14 38 2 55 -47 68
-75 19 -115 74 -208 290 -53 122 -93 173 -164 208 -38 18 -40 19 -72 21 -19 1
-20 3 -8 11 9 5 22 10 30 12 35 7 128 63 163 96 70 67 98 144 98 267 -1 176
-99 279 -309 325 -74 16 -123 19 -322 17 -129 -1 -277 -3 -328 -5z m537 -99
c96 -28 149 -85 170 -178 11 -52 5 -200 -9 -236 -32 -80 -97 -130 -188 -145
-45 -8 -192 -12 -209 -6 -10 3 -13 71 -13 293 l0 289 103 -2 c56 -1 122 -8
146 -15z"/>
<path d="M10912 8132 l-173 -2 -9 -25 c-12 -30 -3 -55 19 -56 70 -3 121 -24
137 -56 7 -16 10 -179 10 -541 -1 -572 2 -546 -65 -558 -20 -4 -44 -8 -55 -10
-41 -7 -51 -30 -30 -67 10 -17 30 -18 255 -18 375 0 344 -3 357 25 16 35 -4
57 -59 62 -71 7 -95 11 -117 23 -49 26 -50 30 -50 220 0 100 3 183 6 185 4 2
64 6 132 7 145 3 221 18 305 59 118 58 191 154 222 290 6 28 5 126 -2 166 -11
60 -51 136 -92 178 -52 52 -105 81 -191 105 -77 21 -92 21 -600 13z m418 -85
c95 -18 168 -84 193 -174 29 -104 24 -232 -13 -308 -53 -109 -136 -156 -280
-159 l-95 -1 -2 320 c-1 201 2 322 8 325 11 7 150 5 189 -3z"/>
<path d="M6949 7745 c-3 -2 -16 -6 -29 -8 -102 -19 -199 -69 -239 -125 -25
-36 -32 -83 -18 -129 12 -39 84 -81 113 -65 9 5 42 57 73 117 32 59 66 112 76
117 32 18 130 12 179 -11 59 -29 76 -71 76 -191 0 -79 -2 -90 -17 -91 -23 -1
-46 -4 -106 -13 -179 -27 -293 -74 -369 -149 -64 -64 -84 -153 -57 -250 16
-59 92 -132 158 -151 117 -34 282 -5 359 63 9 9 26 23 37 31 17 13 18 13 13
-1 -10 -25 19 -77 52 -94 61 -32 260 8 275 54 12 38 -5 53 -51 47 -69 -8 -69
-11 -71 308 -1 155 -4 298 -7 319 -17 105 -96 187 -205 213 -31 8 -236 15
-242 9z m230 -615 l0 -160 -32 -23 c-18 -13 -47 -30 -64 -37 -49 -19 -136 -17
-167 3 -85 56 -75 230 17 299 39 29 73 43 152 62 104 25 95 38 94 -144z"/>
<path d="M8915 7735 c-148 -36 -248 -122 -243 -207 2 -41 23 -84 46 -97 9 -5
32 -11 51 -13 33 -3 34 -2 91 105 31 59 63 115 72 123 32 33 175 18 220 -23
32 -29 41 -61 44 -164 2 -70 0 -96 -9 -96 -82 -3 -291 -53 -363 -87 -122 -58
-183 -133 -188 -231 -7 -156 108 -263 282 -263 109 0 176 23 262 89 l35 27 2
-31 c2 -17 14 -42 27 -56 40 -40 159 -38 252 4 46 21 58 39 44 65 -10 18 -18
21 -51 16 -66 -9 -67 -5 -72 339 -4 318 -3 310 -31 367 -32 67 -83 106 -171
133 -54 16 -233 16 -300 0z m277 -452 c7 -37 3 -311 -5 -321 -24 -31 -110 -64
-167 -65 -63 -1 -98 15 -127 59 -19 30 -22 130 -5 175 29 73 108 125 222 144
19 3 36 8 39 11 7 7 41 5 43 -3z"/>
<path d="M12275 7743 c-85 -12 -200 -65 -243 -113 -64 -69 -55 -173 17 -202
61 -25 64 -23 132 104 40 74 72 121 84 125 70 22 195 -8 219 -53 6 -10 15 -22
19 -25 10 -7 17 -208 7 -214 -3 -2 -29 -7 -56 -10 -181 -23 -297 -58 -380
-116 -84 -57 -115 -109 -119 -198 -5 -119 63 -215 175 -249 39 -11 172 -10
220 3 52 14 160 72 160 87 0 4 5 8 10 8 6 0 10 -5 10 -11 0 -33 34 -79 67 -90
65 -21 211 8 255 50 12 12 14 22 7 40 -8 21 -14 23 -54 18 -43 -6 -47 -4 -57
21 -7 17 -11 137 -13 322 -2 281 -3 297 -24 346 -48 111 -147 161 -314 161
-51 0 -105 -1 -122 -4z m236 -460 c5 -35 3 -298 -3 -312 -3 -10 -30 -30 -60
-44 -149 -75 -269 -11 -255 136 11 118 76 178 232 212 73 16 85 17 86 8z"/>
<path d="M13477 7725 c-51 -27 -93 -66 -135 -129 l-27 -40 -5 81 c-3 45 -9 85
-13 89 -8 8 -57 9 -235 4 -65 -2 -97 -7 -108 -17 -35 -35 -6 -68 71 -79 35 -6
75 -46 76 -77 1 -12 2 -159 3 -327 l1 -305 -24 -22 c-13 -13 -31 -23 -40 -24
-70 -3 -95 -26 -68 -63 11 -15 35 -17 237 -17 124 0 240 0 258 0 25 1 35 7 44
26 14 32 5 42 -47 49 -81 12 -100 18 -120 32 -19 14 -20 28 -23 274 -3 246 -2
261 18 300 41 80 132 147 164 121 6 -5 30 -35 51 -65 41 -56 59 -65 96 -45 74
39 99 137 53 207 -36 55 -146 68 -227 27z"/>
<path d="M7588 7732 c-69 -6 -75 -65 -9 -76 68 -11 90 -42 176 -251 18 -44 85
-204 149 -355 l117 -275 -17 -45 c-25 -64 -77 -151 -110 -180 -15 -14 -23 -18
-19 -10 8 13 7 13 -8 1 -14 -11 -17 -11 -17 0 0 10 -3 10 -12 1 -14 -14 -32
-16 -23 -2 3 5 0 7 -9 4 -9 -4 -30 9 -54 35 -21 23 -48 41 -59 41 -25 0 -59
-37 -68 -72 -4 -16 -11 -28 -17 -28 -5 0 -6 4 -3 10 3 6 -1 7 -9 4 -9 -3 -13
-11 -9 -18 4 -6 -2 -4 -12 4 -11 9 -16 10 -11 3 4 -7 2 -13 -3 -13 -6 0 -11 6
-11 13 0 8 -3 8 -9 -2 -8 -12 -12 -13 -25 -1 -14 11 -16 11 -11 -1 4 -11 -6
-14 -42 -14 -27 1 -53 -3 -60 -8 -7 -5 -21 -6 -33 -2 -12 4 -20 2 -20 -5 0 -6
-5 -8 -10 -5 -6 4 -17 2 -25 -5 -10 -8 -15 -8 -20 1 -6 8 -10 7 -16 -2 -7 -12
-9 -11 -9 0 0 11 -3 10 -13 -3 -12 -16 -17 -17 -36 -6 -18 9 -22 9 -16 0 5 -8
1 -11 -12 -8 -11 2 -28 -4 -38 -12 -11 -8 -16 -10 -12 -3 4 6 3 14 -3 18 -5 3
-10 -1 -10 -11 0 -14 -2 -15 -17 -3 -9 8 -14 9 -10 3 4 -7 0 -15 -9 -18 -10
-4 -13 -2 -8 7 6 9 4 9 -7 1 -8 -6 -22 -10 -31 -9 -10 2 -18 0 -18 -5 0 -4
-10 -6 -22 -3 -17 3 -19 2 -9 -5 9 -7 1 -9 -28 -7 -23 1 -41 -2 -41 -6 0 -5
-5 -9 -11 -9 -5 0 -7 6 -4 13 4 6 1 5 -7 -3 -7 -9 -21 -16 -30 -17 -10 0 -27
-1 -39 -2 -13 -1 -18 -5 -13 -13 6 -10 4 -10 -8 0 -12 9 -18 10 -23 2 -4 -6
-13 -9 -21 -6 -8 3 -14 1 -14 -4 0 -5 -7 -6 -17 -3 -12 5 -14 3 -8 -8 8 -12 6
-12 -8 0 -14 11 -18 11 -23 -2 -3 -9 -14 -14 -25 -12 -10 2 -21 0 -24 -6 -4
-5 -12 -9 -18 -9 -7 0 -6 4 3 10 8 5 11 10 7 10 -4 0 -19 -7 -32 -16 -14 -9
-25 -12 -25 -8 0 5 -5 2 -10 -6 -7 -11 -10 -12 -10 -2 0 10 -4 10 -15 -2 -9
-8 -22 -13 -29 -10 -8 3 -17 0 -21 -6 -5 -8 -11 -7 -23 2 -12 10 -14 10 -8 1
6 -12 -5 -18 -26 -14 -5 0 -8 -5 -8 -11 0 -9 -4 -8 -10 2 -6 9 -10 11 -10 3 0
-7 -7 -10 -15 -7 -8 4 -15 1 -15 -6 0 -6 -4 -9 -9 -5 -5 3 -13 0 -17 -6 -4 -8
-9 -7 -15 2 -6 10 -9 10 -9 2 0 -6 -9 -10 -20 -8 -11 2 -19 1 -19 -3 3 -19 -2
-26 -10 -13 -7 11 -13 10 -35 -4 -14 -10 -26 -13 -26 -9 0 5 -5 2 -10 -6 -9
-13 -10 -13 -10 0 -1 11 -4 10 -15 -4 -11 -14 -15 -16 -15 -5 -1 10 -4 9 -11
-4 -8 -14 -14 -16 -25 -6 -11 9 -14 9 -14 0 0 -7 -4 -9 -10 -6 -5 3 -10 1 -10
-6 0 -8 -5 -7 -17 2 -9 8 -14 9 -10 3 4 -7 0 -15 -9 -18 -10 -4 -13 -2 -8 7 4
6 -2 4 -13 -6 -11 -9 -23 -14 -26 -10 -4 3 -7 1 -7 -6 0 -9 -5 -9 -20 -1 -16
8 -22 8 -26 -4 -3 -8 -14 -13 -25 -11 -10 2 -19 -1 -19 -6 0 -6 -4 -7 -10 -4
-5 3 -10 1 -10 -6 0 -9 -3 -9 -14 0 -11 10 -17 8 -25 -6 -7 -13 -10 -14 -11
-4 0 11 -4 10 -16 -5 -8 -10 -13 -12 -9 -4 4 9 1 8 -8 -3 -11 -14 -16 -15 -20
-5 -4 10 -7 10 -15 -1 -6 -8 -19 -12 -32 -8 -14 3 -23 0 -27 -10 -5 -12 -7
-12 -14 -1 -7 10 -9 11 -9 0 0 -7 -4 -10 -10 -7 -5 3 -10 1 -10 -4 0 -6 -3
-10 -7 -10 -21 3 -33 -2 -27 -12 4 -8 0 -8 -15 0 -15 8 -21 9 -21 1 0 -6 -4
-8 -10 -5 -5 3 -10 0 -10 -7 0 -8 -3 -9 -8 -3 -9 13 -35 18 -27 5 3 -5 0 -11
-7 -11 -7 -1 -20 -3 -28 -4 -8 -1 -21 -3 -28 -4 -7 0 -10 -5 -7 -11 3 -5 0 -7
-9 -4 -8 3 -23 1 -34 -5 -13 -7 -23 -7 -32 2 -10 10 -12 8 -7 -6 4 -10 3 -15
-2 -12 -5 3 -12 1 -16 -5 -4 -6 -10 -8 -15 -5 -5 3 -19 1 -31 -6 -15 -8 -19
-8 -15 0 4 6 2 11 -3 11 -6 0 -11 -5 -11 -12 0 -6 -3 -8 -7 -5 -3 4 -12 2 -20
-4 -7 -6 -13 -8 -13 -4 0 5 -9 0 -19 -9 -12 -11 -21 -14 -26 -7 -4 8 -12 8
-26 0 -12 -6 -23 -8 -26 -5 -3 3 -12 -2 -20 -12 -8 -9 -12 -11 -8 -4 3 6 1 12
-4 12 -6 0 -11 -4 -11 -8 0 -4 -12 -9 -26 -10 -15 -1 -34 -8 -42 -15 -10 -8
-13 -8 -9 0 5 7 0 9 -13 6 -11 -3 -20 -9 -20 -12 0 -4 -16 -7 -36 -6 -19 1
-41 -3 -47 -9 -7 -7 -27 -11 -45 -10 -26 1 -32 -2 -27 -14 4 -12 3 -13 -10 -2
-10 8 -15 9 -15 1 0 -6 -5 -11 -11 -11 -5 0 -7 6 -3 13 6 9 5 9 -7 0 -22 -18
-93 -28 -84 -12 5 8 4 10 -4 5 -6 -4 -8 -12 -5 -18 5 -7 2 -9 -8 -5 -9 3 -21
0 -28 -6 -10 -9 -11 -9 -5 2 5 8 -3 6 -21 -5 -15 -11 -25 -14 -21 -8 4 7 -4
11 -22 10 -20 -1 -26 -5 -20 -12 5 -7 3 -11 -6 -11 -8 0 -15 4 -15 9 0 5 -6 6
-12 1 -7 -4 -24 -9 -38 -9 -40 -3 -42 -3 -34 -16 5 -9 2 -9 -9 1 -11 9 -17 10
-17 2 0 -13 -22 -10 -32 4 -5 6 -8 5 -8 -2 0 -7 -7 -10 -17 -6 -12 5 -14 3 -8
-8 7 -12 6 -12 -7 -1 -12 9 -18 10 -23 2 -5 -8 -11 -8 -21 1 -11 9 -14 8 -14
-7 0 -14 -2 -16 -9 -6 -12 19 -15 19 -36 2 -11 -8 -16 -10 -12 -4 3 6 0 11 -8
11 -8 0 -12 -4 -9 -9 3 -4 -2 -8 -10 -8 -9 0 -16 6 -16 13 0 9 -2 9 -8 0 -5
-8 -34 -13 -75 -14 -42 -1 -67 -6 -67 -13 0 -8 -2 -8 -8 0 -8 13 -61 13 -81 0
-10 -6 -12 -6 -7 2 9 16 -7 15 -22 0 -7 -7 -12 -8 -12 -2 0 13 -59 12 -79 0
-9 -6 -12 -5 -8 1 4 6 -22 10 -67 10 -40 0 -85 3 -100 7 -18 4 -25 3 -21 -4
11 -18 -3 -11 -25 13 -19 20 -21 20 -14 2 7 -18 6 -18 -9 -6 -12 10 -17 10
-17 2 0 -8 -6 -6 -16 4 -12 12 -19 13 -24 5 -5 -8 -10 -8 -14 -2 -3 5 -20 8
-37 6 -25 -3 -30 -1 -25 12 5 14 4 15 -9 4 -12 -10 -15 -10 -15 1 0 11 -2 11
-10 -1 -6 -9 -10 -10 -10 -3 0 6 -9 10 -19 8 -11 -2 -22 3 -25 11 -3 7 -12 11
-19 8 -8 -3 -31 2 -52 10 -28 12 -35 13 -29 3 5 -7 1 -4 -8 6 -13 13 -18 15
-18 6 0 -12 -2 -12 -9 0 -5 7 -13 11 -19 7 -6 -3 -14 -1 -18 5 -5 8 -3 9 6 4
8 -5 11 -4 7 2 -4 6 -18 9 -32 8 -17 -2 -25 2 -25 12 0 12 -3 13 -13 4 -10 -8
-19 -6 -35 9 -12 11 -31 20 -42 20 -12 0 -19 4 -16 9 3 5 -1 12 -10 15 -9 3
-12 2 -9 -4 4 -6 -8 -2 -26 9 -18 11 -36 18 -41 15 -5 -3 -7 0 -6 8 2 7 -5 12
-15 11 -12 -1 -17 4 -13 14 3 8 1 11 -4 8 -6 -3 -10 -2 -10 4 0 5 -9 8 -21 6
-17 -4 -19 -2 -9 10 10 13 8 15 -14 15 -15 0 -29 7 -32 15 -3 8 -14 17 -25 20
-10 4 -19 13 -19 20 0 9 -8 12 -20 10 -11 -2 -18 0 -15 5 3 5 -1 12 -8 17 -7
4 -21 19 -30 33 -9 13 -17 20 -17 14 0 -5 6 -16 13 -24 10 -12 9 -12 -5 -1
-10 7 -20 21 -23 32 -4 10 -13 19 -21 19 -8 0 -12 5 -9 10 3 6 0 10 -7 10 -16
0 -41 37 -33 50 3 6 0 7 -8 4 -18 -6 -50 24 -40 39 4 6 0 8 -10 4 -18 -7 -33
8 -17 18 6 4 7 11 4 17 -4 6 -10 5 -15 -3 -7 -11 -9 -10 -9 4 0 10 -4 16 -9
12 -6 -3 -8 4 -6 15 2 11 0 18 -6 15 -5 -4 -9 2 -10 12 0 11 -3 13 -6 5 -2 -6
-10 -9 -16 -5 -7 4 -6 -1 2 -11 13 -15 13 -19 0 -27 -12 -7 -12 -9 1 -9 14 0
20 -18 23 -72 1 -9 4 -15 8 -12 4 2 10 -3 13 -12 4 -10 2 -13 -7 -8 -6 4 -4
-2 6 -14 11 -11 16 -25 13 -31 -3 -5 1 -16 9 -25 9 -8 16 -18 15 -21 -1 -26 2
-35 10 -30 7 4 9 -3 6 -20 -4 -19 2 -32 19 -47 13 -11 21 -26 19 -33 -3 -7 2
-19 10 -28 12 -12 13 -17 3 -20 -7 -3 -5 -6 5 -6 11 -1 15 -6 12 -16 -4 -9 1
-18 11 -21 9 -4 14 -13 11 -20 -3 -8 1 -14 9 -14 9 0 12 -6 8 -17 -4 -11 -3
-14 5 -9 8 5 12 0 12 -14 0 -12 5 -18 10 -15 6 3 10 -3 10 -14 0 -13 7 -21 18
-21 14 0 15 -2 2 -10 -13 -8 -13 -10 2 -10 9 0 22 -13 29 -29 7 -16 17 -27 21
-25 4 3 8 -5 8 -17 0 -12 3 -20 6 -16 8 8 34 -18 34 -33 0 -7 7 -9 16 -6 8 3
13 2 10 -2 -3 -5 4 -15 15 -22 10 -8 19 -21 19 -29 0 -8 3 -11 6 -8 10 10 45
-34 37 -47 -4 -6 2 -4 12 4 10 8 16 11 13 5 -7 -12 17 -37 26 -28 3 4 6 -1 6
-10 0 -10 8 -17 21 -17 11 0 17 -4 14 -10 -3 -6 1 -7 9 -4 9 3 16 1 16 -6 0
-6 5 -8 12 -4 7 5 9 2 5 -9 -4 -11 -2 -14 9 -10 7 3 14 0 14 -7 0 -6 4 -9 9
-5 5 3 12 1 16 -5 4 -6 11 -8 16 -5 5 3 6 -1 3 -9 -4 -11 0 -13 17 -9 17 5 20
3 14 -7 -6 -10 -4 -12 8 -7 12 4 17 1 17 -11 0 -10 3 -13 8 -7 11 16 37 12 37
-5 1 -8 7 -14 14 -12 8 2 22 -5 33 -15 18 -16 19 -16 13 3 -6 18 -6 18 9 0 8
-10 19 -15 25 -12 5 4 12 2 16 -4 4 -6 11 -8 16 -5 5 4 9 1 9 -6 0 -6 8 -9 20
-6 11 3 27 -1 34 -9 18 -17 30 -18 19 -1 -4 6 5 4 20 -6 15 -9 27 -13 27 -8 0
6 7 8 15 5 8 -4 12 -11 9 -16 -4 -6 2 -5 14 1 12 6 22 7 24 1 2 -5 29 -10 61
-11 32 -1 60 -6 63 -11 3 -4 14 -3 25 2 14 8 19 7 19 -2 0 -9 3 -9 10 2 9 13
10 13 10 0 0 -13 1 -13 10 0 9 13 10 13 10 0 0 -10 3 -11 8 -4 10 15 52 11 63
-7 7 -11 9 -10 9 6 0 11 4 16 8 10 9 -13 46 -20 38 -7 -3 5 1 9 9 9 8 0 11 -5
8 -11 -4 -6 1 -5 10 3 14 11 17 11 17 0 0 -11 2 -11 10 1 8 12 10 12 10 1 0
-11 3 -11 15 -1 12 10 15 10 15 -1 0 -9 3 -10 8 -3 4 6 25 11 47 10 22 -1 43
3 46 7 3 5 14 0 24 -10 16 -15 18 -16 13 -1 -8 20 22 35 33 16 6 -9 11 -9 23
1 13 11 16 11 16 0 0 -10 2 -11 8 -2 4 7 19 12 32 12 14 1 35 1 48 1 12 0 22
6 22 13 0 8 4 7 10 -3 7 -12 10 -12 10 -1 0 7 6 11 15 7 8 -3 15 -2 15 3 0 4
10 7 23 6 12 -1 28 3 36 9 12 9 13 8 6 -4 -8 -13 -6 -13 8 -2 9 8 21 11 27 7
5 -3 10 -1 10 5 0 6 5 8 10 5 6 -4 17 -1 25 5 12 10 15 10 15 -1 1 -10 4 -9
11 3 8 14 15 15 35 8 18 -7 23 -7 18 1 -5 8 1 10 20 7 14 -3 29 -1 33 5 3 6 1
7 -5 3 -17 -10 -15 -1 2 13 11 9 16 9 22 0 5 -8 3 -9 -6 -4 -9 5 -11 4 -6 -4
6 -8 12 -9 20 -2 7 6 16 8 19 4 4 -3 7 -2 7 4 0 6 7 14 16 17 9 4 13 2 8 -5
-4 -7 -1 -10 7 -7 8 3 13 10 12 15 -1 5 4 10 12 10 8 0 12 -5 8 -10 -3 -5 4
-4 16 2 11 7 21 8 21 4 0 -4 6 1 13 12 10 13 16 15 21 6 6 -9 11 -9 21 -1 8 7
18 9 24 6 5 -4 17 1 25 10 9 9 23 13 31 10 8 -3 15 -1 15 4 0 5 9 7 20 5 11
-2 18 0 15 6 -4 5 3 9 14 9 11 0 23 5 26 10 3 6 12 10 18 10 7 0 6 -4 -3 -10
-8 -5 -10 -10 -5 -10 6 1 19 7 29 15 10 8 23 12 27 9 5 -3 9 1 9 8 0 9 3 9 10
-2 8 -13 10 -12 10 3 0 10 4 16 8 13 10 -6 84 19 77 26 -3 3 6 4 20 3 14 -2
25 1 25 6 0 4 6 6 14 3 8 -3 17 0 21 5 3 6 11 8 17 5 8 -5 9 -1 4 11 -5 15 -4
16 9 5 11 -9 15 -9 15 -1 0 7 4 10 8 7 5 -3 21 2 36 9 16 8 32 12 37 9 5 -3 9
-1 9 5 0 6 7 8 15 5 8 -4 15 -2 15 4 0 9 47 27 63 24 4 -1 7 2 7 8 0 5 7 7 15
4 8 -4 15 -1 15 4 0 6 9 9 20 7 13 -3 18 0 14 7 -5 7 2 9 19 6 15 -3 25 -2 22
1 -2 4 5 13 17 20 11 7 17 8 14 2 -4 -7 -1 -8 8 -5 9 3 16 11 16 17 0 6 3 7 7
4 3 -4 12 -2 20 5 11 9 12 7 8 -8 -4 -12 0 -9 9 6 8 14 15 19 16 12 0 -10 4
-10 16 2 8 9 20 16 26 16 6 0 21 8 32 18 20 16 20 16 7 -1 -12 -15 -12 -17 3
-11 9 3 16 10 16 16 0 5 4 7 9 3 5 -3 12 -1 16 5 4 6 11 8 16 5 5 -4 9 -1 9 5
0 6 8 10 18 8 10 -2 16 2 14 10 -2 10 2 10 18 2 16 -9 22 -8 26 5 3 8 15 15
26 15 10 0 17 4 14 8 -3 4 8 7 24 6 18 -1 28 3 27 10 -1 6 9 11 22 11 14 0 26
6 28 12 3 7 11 9 20 6 11 -5 14 -3 8 6 -6 10 -3 11 14 2 12 -7 20 -8 19 -4 -2
4 1 9 5 10 5 1 16 10 24 20 14 17 14 17 9 -2 -6 -19 -5 -19 8 -2 7 9 21 17 30
17 9 0 16 5 16 11 0 5 5 7 10 4 6 -3 10 -2 10 4 0 6 6 8 14 5 8 -3 17 0 21 5
3 6 11 9 16 6 5 -4 9 -1 9 5 0 6 5 8 11 4 6 -3 14 -3 18 2 15 21 48 33 60 21
9 -9 11 -8 5 6 -5 13 -2 16 10 11 9 -4 16 -1 16 6 0 7 8 10 19 7 12 -3 22 1
25 10 3 8 12 13 19 10 6 -2 21 3 31 12 16 13 18 13 11 1 -7 -12 -5 -12 11 1
10 9 25 14 33 11 8 -3 11 0 7 7 -5 7 2 11 18 11 14 0 26 5 26 10 0 6 9 10 19
10 11 0 22 4 26 10 3 5 13 6 22 3 11 -4 14 -3 9 6 -5 8 -3 12 5 10 25 -3 40 1
35 9 -3 5 8 8 24 7 17 -1 28 0 25 3 -2 3 3 11 13 18 12 8 21 9 29 2 9 -7 15
-6 19 6 3 9 10 13 15 10 5 -3 9 0 9 6 0 6 5 8 10 5 6 -3 10 0 10 7 0 11 2 10
9 0 7 -11 9 -11 14 2 4 9 11 16 17 16 6 0 8 -6 5 -12 -4 -7 -1 -6 7 3 7 9 21
15 31 13 12 -1 17 2 14 11 -4 8 1 11 12 8 10 -2 23 3 31 11 10 12 16 14 26 5
8 -6 14 -7 14 -3 0 5 9 15 21 22 12 8 18 9 14 3 -3 -6 1 -11 10 -11 9 0 14 4
11 9 -8 13 30 21 42 9 7 -7 10 -4 9 8 -2 13 5 18 23 18 14 0 31 7 38 16 12 13
13 13 8 -5 -5 -17 -4 -18 7 -5 6 8 19 16 27 18 8 2 18 9 22 15 6 9 8 9 8 0 0
-7 5 -13 11 -13 5 0 7 5 4 10 -3 6 5 11 19 11 45 2 51 5 49 17 -2 7 2 12 7 12
6 0 10 -6 10 -12 0 -10 2 -10 9 0 4 7 14 12 22 10 8 -2 13 2 12 8 -1 6 8 10
20 9 12 -1 28 3 36 9 12 8 13 8 7 -2 -7 -11 -4 -11 11 -2 16 10 26 7 64 -20
35 -24 60 -33 105 -37 72 -6 117 11 171 64 35 35 103 125 103 137 0 2 16 40
36 83 33 70 57 131 141 353 13 36 28 74 33 85 4 11 43 115 86 230 108 294 116
308 184 320 40 7 36 4 44 31 11 36 -13 44 -140 45 -235 2 -233 2 -240 -27 -8
-33 2 -42 56 -49 25 -3 53 -13 63 -23 17 -17 15 -26 -53 -223 -39 -112 -73
-211 -75 -219 -2 -8 -9 -28 -15 -45 -6 -16 -13 -37 -15 -45 -2 -8 -9 -31 -17
-50 l-15 -35 -11 35 c-6 19 -34 96 -62 170 -28 74 -59 158 -70 185 -10 28 -32
87 -48 132 -28 74 -29 84 -16 98 9 8 24 16 35 16 10 1 24 3 29 4 6 1 17 3 25
4 9 0 20 11 24 24 18 45 -1 49 -211 51 -106 0 -210 0 -230 -2z"/>
<path d="M4686 7554 c-5 -14 -4 -15 9 -4 17 14 19 20 6 20 -5 0 -12 -7 -15
-16z"/>
<path d="M2953 7135 c0 -8 4 -15 9 -15 4 0 8 4 8 9 0 6 -4 12 -8 15 -5 3 -9
-1 -9 -9z"/>
<path d="M2910 7110 c-9 -6 -10 -10 -3 -10 6 0 15 5 18 10 8 12 4 12 -15 0z"/>
<path d="M4165 7020 c-3 -6 -1 -10 4 -10 6 0 11 -4 11 -10 0 -5 -6 -8 -12 -6
-7 1 -10 1 -5 -1 4 -3 5 -9 2 -14 -4 -5 1 -6 9 -3 9 3 16 10 16 16 0 5 5 6 10
3 6 -3 10 -2 10 2 0 14 -38 34 -45 23z"/>
<path d="M8214 6295 c4 -13 2 -14 -14 -5 -15 8 -20 8 -20 -2 0 -9 -3 -9 -10 2
-6 10 -10 11 -10 3 0 -7 -5 -13 -11 -13 -5 0 -8 4 -5 9 7 11 -21 8 -31 -4 -4
-4 -2 -5 6 0 10 5 12 4 7 -4 -4 -6 -13 -8 -19 -4 -17 10 -40 10 -55 -1 -7 -5
-15 -6 -19 -3 -3 4 -13 1 -21 -6 -13 -9 -14 -9 -8 1 4 6 2 12 -3 12 -6 0 -11
-5 -11 -11 0 -8 -6 -7 -17 2 -9 8 -14 9 -10 2 10 -16 -14 -22 -37 -11 -14 8
-17 7 -11 -2 6 -10 1 -12 -19 -8 -20 4 -26 2 -22 -8 4 -10 -2 -9 -21 3 -15 10
-24 13 -20 7 4 -7 0 -14 -7 -17 -8 -3 -17 -1 -20 6 -3 9 -5 9 -5 0 -1 -7 -14
-13 -29 -13 -15 0 -34 -6 -41 -12 -11 -11 -12 -10 -6 1 5 9 3 12 -6 9 -8 -3
-13 -10 -12 -15 1 -4 -21 -8 -48 -7 -37 0 -46 -2 -38 -12 7 -9 5 -12 -8 -10
-10 0 -21 6 -25 11 -5 6 -8 6 -8 -1 0 -7 -7 -15 -16 -18 -9 -4 -13 -2 -8 5 3
6 -5 3 -20 -6 -14 -10 -26 -15 -26 -11 0 3 -11 1 -24 -4 -16 -6 -27 -5 -35 3
-9 9 -11 8 -6 -5 5 -13 2 -16 -14 -13 -12 2 -21 -1 -21 -7 0 -5 -6 -8 -14 -5
-7 3 -24 -2 -37 -10 -12 -9 -19 -11 -15 -5 5 8 2 10 -8 6 -9 -3 -16 -10 -16
-15 0 -6 -10 -5 -21 2 -15 8 -19 8 -15 0 4 -6 1 -12 -6 -13 -7 0 -17 -2 -23
-3 -5 -2 -18 -3 -28 -4 -10 0 -16 -5 -12 -10 3 -6 -3 -8 -15 -6 -11 2 -22 -1
-26 -6 -4 -6 -11 -6 -19 1 -12 10 -13 8 -10 -10 3 -16 1 -19 -8 -11 -8 6 -18
6 -27 1 -8 -5 -18 -6 -22 -4 -4 3 -8 0 -8 -7 0 -8 -4 -8 -15 1 -13 11 -14 10
-9 -5 5 -13 4 -16 -5 -11 -6 4 -18 2 -26 -4 -11 -10 -15 -10 -15 -1 0 7 -5 9
-10 6 -6 -4 -7 -11 -4 -17 5 -7 1 -9 -9 -5 -9 3 -19 2 -22 -4 -4 -5 -11 -7
-16 -4 -5 4 -9 1 -9 -5 0 -6 -4 -9 -9 -5 -5 3 -12 1 -16 -5 -9 -15 -27 -12
-20 3 4 6 0 4 -8 -6 -11 -14 -16 -15 -20 -5 -3 8 -6 6 -6 -5 -1 -10 -5 -16
-10 -13 -4 3 -17 -1 -27 -9 -10 -8 -23 -14 -29 -15 -5 0 -3 5 5 10 8 5 11 10
7 10 -5 0 -22 -9 -39 -21 -16 -12 -32 -18 -35 -15 -4 3 -15 -2 -26 -11 -11
-10 -17 -13 -14 -6 4 6 2 15 -4 19 -8 4 -9 3 -5 -4 7 -12 -27 -35 -37 -25 -4
3 -13 1 -20 -5 -8 -7 -18 -8 -22 -4 -5 4 -5 1 -1 -5 4 -8 2 -14 -6 -15 -7 0
-18 -2 -24 -2 -6 -1 -20 -8 -30 -16 -16 -13 -17 -13 -10 0 4 9 1 8 -7 -2 -16
-21 -32 -24 -21 -5 4 6 -1 5 -12 -4 -10 -9 -27 -15 -37 -14 -10 2 -23 -5 -30
-15 -8 -14 -15 -16 -24 -8 -9 7 -14 6 -19 -6 -3 -9 -10 -13 -15 -10 -5 3 -9 1
-9 -4 0 -6 -8 -9 -17 -8 -11 0 -17 -5 -15 -13 3 -12 1 -12 -14 0 -15 12 -17
12 -9 0 6 -11 3 -13 -13 -9 -13 4 -23 0 -26 -9 -3 -8 -10 -11 -16 -8 -5 3 -10
1 -10 -6 0 -8 -4 -8 -15 1 -12 10 -15 10 -15 -3 0 -11 -7 -15 -20 -12 -11 2
-18 0 -15 -6 4 -5 -3 -9 -14 -9 -12 0 -21 -5 -21 -11 0 -9 -4 -9 -13 0 -11 8
-18 6 -32 -9 -10 -11 -22 -17 -26 -14 -5 3 -9 1 -9 -5 0 -6 -7 -8 -15 -5 -8 4
-15 1 -15 -6 0 -6 -4 -8 -10 -5 -5 3 -10 1 -10 -6 0 -6 -8 -9 -20 -6 -11 3
-18 1 -14 -4 5 -8 -10 -13 -29 -10 -4 1 -17 -5 -29 -13 -11 -8 -28 -12 -37 -8
-13 5 -14 3 -3 -10 10 -13 9 -15 -13 -10 -16 3 -25 0 -25 -8 0 -9 -4 -9 -17 1
-15 12 -16 12 -10 -5 5 -13 3 -17 -6 -13 -7 3 -21 -1 -31 -9 -11 -7 -23 -11
-27 -8 -12 7 -51 -21 -42 -29 3 -4 1 -7 -5 -7 -5 0 -13 6 -15 13 -4 10 -6 10
-6 0 -1 -7 -10 -13 -21 -13 -11 0 -20 -6 -20 -12 0 -9 -4 -8 -10 2 -8 13 -10
12 -10 -3 0 -14 -4 -16 -19 -7 -17 9 -19 7 -16 -10 3 -17 1 -19 -16 -10 -13 8
-19 7 -19 0 0 -6 -4 -8 -10 -5 -5 3 -10 1 -10 -5 0 -6 -4 -8 -10 -5 -5 3 -10
1 -10 -6 0 -7 -3 -9 -7 -6 -3 4 -11 3 -17 -2 -6 -6 -25 -12 -41 -14 -17 -2
-29 -9 -28 -15 2 -7 -4 -9 -14 -5 -10 4 -14 2 -10 -4 4 -6 -6 -9 -23 -8 -16 1
-27 -2 -25 -6 3 -4 -2 -10 -11 -13 -10 -4 -13 -2 -8 7 4 6 -3 2 -15 -10 -26
-27 -39 -31 -20 -5 11 14 10 13 -9 -2 -12 -11 -22 -15 -22 -11 0 5 -7 0 -16
-11 -8 -10 -13 -13 -9 -6 3 6 1 12 -4 12 -6 0 -11 -5 -11 -11 0 -5 -4 -7 -10
-4 -5 3 -10 2 -10 -4 0 -6 -7 -8 -15 -5 -9 4 -18 -1 -21 -11 -5 -13 -9 -14
-15 -3 -6 9 -9 10 -9 1 0 -7 -7 -10 -17 -6 -12 5 -14 3 -8 -7 6 -10 4 -12 -8
-7 -10 3 -17 2 -17 -3 0 -5 -9 -7 -20 -5 -11 2 -18 0 -15 -6 4 -5 -2 -9 -12
-9 -11 0 -25 -6 -32 -12 -11 -11 -12 -10 -6 2 7 12 6 13 -7 3 -8 -7 -19 -9
-23 -5 -5 4 -5 2 -2 -4 4 -7 0 -15 -9 -18 -10 -4 -13 -2 -7 7 4 6 -4 4 -19 -5
-20 -13 -28 -14 -38 -5 -9 8 -11 8 -7 1 4 -7 0 -15 -9 -18 -10 -4 -13 -2 -8 6
4 7 -7 2 -24 -11 -18 -12 -36 -19 -42 -16 -5 3 -10 1 -10 -5 0 -6 -5 -8 -10
-5 -6 4 -17 1 -25 -5 -8 -7 -22 -10 -30 -6 -8 3 -15 1 -15 -4 0 -5 -6 -7 -14
-4 -8 3 -17 0 -21 -5 -3 -6 -11 -9 -16 -6 -5 4 -9 1 -9 -6 0 -7 -3 -9 -7 -6
-3 4 -13 1 -21 -6 -13 -10 -14 -9 -7 3 5 9 -1 7 -15 -5 -14 -12 -20 -14 -15
-5 7 12 3 11 -18 -3 -15 -9 -27 -13 -27 -7 0 16 -14 12 -37 -10 -15 -13 -23
-16 -26 -7 -3 9 -7 9 -17 0 -7 -6 -20 -9 -29 -5 -12 4 -14 2 -6 -9 6 -8 1 -6
-9 6 -16 17 -18 17 -13 2 5 -13 2 -17 -11 -15 -10 2 -16 -3 -14 -10 2 -9 -2
-11 -10 -5 -23 14 -67 11 -61 -5 5 -11 7 -11 14 0 7 10 9 10 9 -2 0 -13 1 -13
10 0 5 8 10 10 10 5 0 -6 9 -11 21 -12 15 -1 19 2 15 15 -5 15 -5 15 8 0 15
-20 31 -24 20 -5 -5 8 -2 8 9 -2 13 -10 20 -11 31 -2 11 9 15 9 19 -1 4 -11 6
-10 6 0 1 8 6 10 14 5 16 -10 77 -11 71 -1 -3 5 -11 5 -17 2 -7 -4 -9 -4 -5 0
3 4 45 8 93 9 64 2 88 6 95 17 8 13 10 12 10 -2 0 -20 15 -24 25 -8 4 6 10 8
15 5 5 -3 11 -1 14 4 3 5 33 8 66 7 40 -1 59 2 56 9 -2 7 12 10 40 9 24 -1 42
2 39 6 -2 4 9 6 26 4 18 -2 28 0 24 6 -3 5 1 7 9 4 8 -3 21 -2 28 2 20 13 82
13 91 0 5 -6 7 -2 4 12 -4 15 -1 20 6 15 21 -13 39 -12 33 2 -4 10 2 11 25 5
18 -5 29 -5 29 1 0 6 10 5 23 -2 20 -11 21 -11 9 4 -12 14 -11 16 7 12 12 -2
21 1 21 6 0 6 5 7 11 4 16 -10 61 4 53 16 -4 7 1 7 15 0 11 -7 21 -8 21 -3 0
5 14 8 30 7 21 -1 29 2 26 10 -3 8 2 11 14 8 10 -3 27 0 39 6 15 9 21 9 21 1
0 -6 7 -4 16 4 18 19 38 21 29 4 -4 -7 0 -5 8 4 11 14 16 15 27 5 10 -9 11 -9
5 2 -6 10 -2 11 15 6 15 -5 20 -4 16 4 -4 6 -1 12 6 12 7 1 24 3 38 5 14 3 31
5 38 6 6 1 12 4 12 8 0 4 15 6 34 5 26 0 32 2 25 11 -11 14 7 14 29 0 7 -4 12
-4 11 1 -3 19 2 25 15 14 11 -9 15 -8 20 5 5 14 9 14 23 3 12 -10 14 -10 9 -1
-7 12 1 14 61 15 12 1 20 5 17 9 -5 8 11 12 30 9 5 -1 13 4 17 10 6 10 11 10
24 -1 14 -11 16 -11 13 1 -2 9 6 14 24 13 15 0 25 4 22 8 -5 7 18 12 39 9 4 0
7 5 7 11 0 9 4 8 10 -2 7 -11 10 -11 10 -2 0 7 4 11 9 8 4 -3 17 1 27 9 10 8
24 14 29 15 6 0 3 -5 -5 -10 -26 -17 -2 -11 32 8 18 11 41 18 51 16 9 -1 19 2
22 6 3 5 15 7 26 5 14 -3 19 0 16 9 -4 9 2 12 19 8 13 -2 32 2 41 9 14 12 16
12 9 -1 -4 -8 -1 -7 7 3 8 9 21 15 30 11 8 -3 18 0 22 5 3 6 11 9 16 6 5 -4 9
-1 9 6 0 9 3 9 14 0 11 -10 17 -8 25 6 7 12 10 13 11 4 0 -10 3 -11 14 -2 8 7
25 13 38 15 13 1 32 7 43 13 11 6 26 8 34 5 8 -3 11 0 7 6 -4 7 3 9 19 6 19
-3 25 0 26 13 0 11 3 13 6 6 3 -10 10 -10 24 -2 11 5 24 7 29 4 6 -3 10 0 10
7 0 9 3 9 10 -2 8 -12 10 -12 10 5 0 15 2 17 9 6 6 -9 10 -9 12 -2 2 6 16 12
32 13 15 1 27 7 27 13 0 5 5 3 10 -5 7 -11 10 -11 10 -2 0 9 10 12 30 8 17 -2
28 0 25 4 -3 5 -1 11 5 15 5 3 10 0 10 -7 0 -10 2 -10 9 1 5 8 14 10 21 6 9
-6 11 -4 5 5 -6 10 -2 11 20 6 23 -6 27 -4 21 10 -5 14 -4 15 9 4 12 -10 15
-10 15 1 0 10 3 10 12 1 9 -9 16 -8 32 6 14 12 17 13 11 2 -6 -12 -5 -13 6 -2
7 6 24 12 37 12 16 0 21 4 16 13 -6 9 -4 9 8 -1 10 -8 18 -9 22 -3 4 6 13 8
21 4 9 -3 15 1 15 8 0 11 3 11 10 -1 8 -13 10 -12 10 4 0 16 2 16 16 5 10 -8
18 -9 22 -2 4 5 17 9 29 8 12 -1 20 2 18 6 -3 4 2 10 11 13 8 3 12 2 9 -4 -3
-6 -2 -10 4 -10 5 0 13 5 16 10 3 6 26 10 51 10 34 0 43 3 38 13 -6 9 -4 9 8
-1 12 -10 18 -10 23 -2 4 7 22 10 40 8 19 -2 32 -1 29 3 -2 4 3 10 12 13 10 4
13 2 8 -7 -5 -8 -2 -7 9 2 14 11 17 11 17 0 1 -10 5 -9 14 4 11 14 15 15 19 5
3 -7 6 -8 6 -2 1 6 17 9 36 8 26 -2 34 0 28 9 -4 7 2 5 12 -3 12 -9 16 -10 11
-2 -6 9 -1 11 18 8 14 -3 26 -1 26 2 0 4 17 7 38 6 20 0 40 4 44 10 5 7 8 6 8
-4 0 -13 1 -13 10 0 9 13 10 13 10 0 0 -13 1 -13 10 0 9 13 10 13 10 0 0 -13
1 -13 10 0 7 11 10 11 10 2 0 -7 5 -10 10 -7 6 4 8 12 4 18 -3 7 2 3 10 -7 15
-18 16 -18 16 -2 0 11 4 15 12 9 7 -4 26 -8 43 -9 21 -2 25 0 15 7 -11 6 -4 8
20 5 19 -2 41 1 49 8 10 7 12 7 8 0 -7 -12 121 -13 140 -1 6 4 14 3 17 -1 3
-5 16 -8 28 -8 13 1 31 -2 42 -7 13 -6 16 -6 12 2 -9 13 4 14 24 1 9 -6 17 -5
22 3 5 8 8 5 8 -7 0 -20 0 -20 16 0 8 10 13 14 10 8 -8 -15 27 -24 48 -12 10
6 16 5 16 -1 0 -6 20 -9 46 -7 29 2 51 -2 60 -11 11 -12 14 -12 14 -1 0 10 2
10 9 -1 5 -8 16 -11 25 -8 9 4 16 2 16 -2 0 -5 10 -7 22 -3 12 3 19 1 15 -4
-3 -5 2 -10 11 -11 9 -1 32 -2 50 -4 19 -1 36 -7 38 -14 3 -7 16 -10 31 -7 18
3 24 1 19 -7 -5 -7 2 -11 21 -11 16 0 40 -8 53 -17 14 -10 26 -17 27 -16 10 6
41 -12 36 -21 -4 -6 1 -5 10 3 11 9 17 10 17 2 0 -6 9 -11 21 -11 11 0 17 -4
14 -10 -3 -5 3 -10 13 -10 11 0 25 -7 32 -15 7 -8 16 -12 21 -9 5 3 9 0 9 -5
0 -6 5 -11 11 -11 6 0 17 -7 25 -15 8 -8 22 -11 31 -8 11 4 14 3 9 -5 -4 -7
-2 -12 4 -12 6 0 8 -5 4 -12 -5 -8 -2 -9 9 -5 11 4 26 -3 41 -18 14 -14 28
-25 31 -25 9 0 31 -23 38 -40 4 -10 6 -11 6 -2 1 8 11 2 25 -12 13 -15 29 -26
36 -26 7 0 10 -7 7 -14 -4 -11 -1 -13 10 -9 11 4 14 2 9 -5 -4 -7 -2 -12 4
-12 12 0 40 -24 40 -34 0 -11 40 -46 53 -46 8 0 7 -4 -3 -10 -13 -8 -13 -10 1
-10 9 0 23 -8 30 -17 13 -17 13 -17 -6 -3 -18 14 -19 14 -7 -2 8 -10 23 -20
33 -23 17 -6 18 -9 7 -23 -10 -12 -10 -14 0 -8 6 4 12 3 12 -3 0 -6 9 -15 20
-21 18 -10 20 -8 17 27 -2 41 -16 64 -32 55 -5 -3 -4 2 3 11 12 14 12 19 -1
32 -9 8 -14 24 -12 35 2 11 -1 20 -6 20 -6 0 -8 4 -4 9 3 5 -2 16 -10 25 -8 8
-15 19 -14 23 5 27 -2 45 -16 39 -19 -7 -19 -1 1 18 14 15 14 16 -4 16 -15 0
-19 6 -17 25 2 14 -1 23 -5 20 -5 -3 -11 -1 -15 5 -3 5 0 10 7 10 8 0 6 5 -5
11 -9 6 -15 14 -12 19 3 4 -1 10 -9 13 -9 4 -13 14 -9 29 4 18 3 20 -6 8 -9
-13 -11 -12 -11 4 0 10 -8 25 -17 33 -11 9 -12 11 -3 7 11 -6 10 -2 -3 13 -9
11 -14 23 -10 28 5 4 3 5 -4 1 -6 -3 -14 -2 -18 4 -3 5 0 10 7 10 10 0 9 3 -2
9 -8 6 -18 7 -24 4 -5 -4 -7 1 -3 11 4 10 1 19 -8 22 -8 4 -15 12 -15 20 0 8
-5 14 -11 14 -5 0 -7 5 -4 10 3 6 -1 10 -9 10 -9 0 -16 5 -16 11 0 16 -26 39
-35 31 -5 -4 -5 -1 -1 5 4 8 -4 24 -18 38 -15 14 -26 31 -26 38 0 7 -4 6 -10
-3 -9 -13 -10 -13 -11 0 -1 8 -1 18 -1 21 1 4 -8 5 -18 2 -12 -3 -20 0 -20 7
0 14 -25 40 -38 40 -5 0 -17 9 -27 20 -10 11 -22 17 -28 13 -6 -4 -7 -1 -3 6
5 8 0 14 -13 18 -11 3 -18 10 -14 16 4 6 0 8 -11 4 -10 -4 -19 -1 -22 8 -4 8
-10 12 -15 9 -5 -3 -9 3 -9 12 0 14 -3 15 -11 7 -9 -9 -16 -7 -28 6 -10 11
-13 12 -6 1 5 -8 -2 -5 -17 8 -23 21 -41 28 -71 31 -5 1 -6 5 -3 10 3 5 0 9
-7 8 -33 -1 -48 4 -41 14 4 8 0 9 -15 4 -11 -3 -21 -3 -21 2 0 5 -12 8 -27 7
-16 -1 -41 5 -56 13 -15 7 -32 11 -37 8 -6 -3 -10 -2 -10 2 0 8 -15 11 -76 17
-12 1 -29 7 -37 14 -10 9 -17 10 -22 2 -3 -5 -14 -10 -23 -10 -15 0 -15 2 -2
10 8 5 10 10 5 10 -6 0 -17 -6 -24 -12 -11 -10 -13 -10 -7 0 9 15 -6 16 -21 1
-8 -8 -13 -7 -18 2 -6 8 -4 10 5 4 9 -5 11 -4 6 3 -5 9 -13 9 -28 1 -15 -8
-22 -8 -28 1 -5 9 -9 9 -14 1 -4 -6 -13 -8 -19 -4 -18 11 -37 12 -37 2 0 -6
-8 -5 -20 1 -15 8 -20 8 -20 -2 0 -9 -3 -9 -10 2 -5 8 -10 11 -10 5 0 -5 -16
-10 -35 -10 -19 0 -35 3 -35 6 0 3 -7 6 -15 6 -8 0 -12 -4 -9 -9 7 -11 1 -10
-31 2 -23 9 -26 8 -21 -5z"/>
<path d="M3030 5966 c0 -2 7 -7 16 -10 8 -3 12 -2 9 4 -6 10 -25 14 -25 6z"/>
<path d="M5240 5949 c0 -5 5 -7 10 -4 6 3 10 8 10 11 0 2 -4 4 -10 4 -5 0 -10
-5 -10 -11z"/>
<path d="M2790 5766 c0 -2 7 -7 16 -10 8 -3 12 -2 9 4 -6 10 -25 14 -25 6z"/>
<path d="M9755 5169 c-4 -6 -5 -12 -2 -15 2 -3 7 2 10 11 7 17 1 20 -8 4z"/>
</g>
</svg>
